<svg width="651" height="214" viewBox="0 0 651 214" fill="none" xmlns="http://www.w3.org/2000/svg">
<rect x="0.5" y="0.5" width="152" height="75" rx="5.5" fill="#FFE4AF" stroke="#7C7C7C"/>
<rect x="0.5" y="0.5" width="152" height="75" rx="5.5" stroke="#D3D3D3"/>
<rect x="215.5" y="0.5" width="152" height="75" rx="5.5" fill="#F99E9E" fill-opacity="0.75" stroke="#7C7C7C"/>
<rect x="215.5" y="0.5" width="152" height="75" rx="5.5" stroke="#D3D3D3"/>
<rect x="0.5" y="138.5" width="152" height="75" rx="5.5" fill="#FFE4AF" stroke="#7C7C7C"/>
<rect x="0.5" y="138.5" width="152" height="75" rx="5.5" stroke="#D3D3D3"/>
<rect x="215.5" y="138.5" width="152" height="75" rx="5.5" fill="#F99E9E" fill-opacity="0.75" stroke="#7C7C7C"/>
<rect x="215.5" y="138.5" width="152" height="75" rx="5.5" stroke="#D3D3D3"/>
<path d="M42.5795 42.1364C41.9659 42.1364 41.4375 41.9915 40.9943 41.7017C40.5511 41.4119 40.2102 41.0128 39.9716 40.5043C39.733 39.9957 39.6136 39.4148 39.6136 38.7614C39.6136 38.0966 39.7358 37.5099 39.9801 37.0014C40.2273 36.4901 40.571 36.0909 41.0114 35.804C41.4545 35.5142 41.9716 35.3693 42.5625 35.3693C43.0227 35.3693 43.4375 35.4545 43.8068 35.625C44.1761 35.7955 44.4787 36.0341 44.7145 36.3409C44.9503 36.6477 45.0966 37.0057 45.1534 37.4148H44.1477C44.071 37.1165 43.9006 36.8523 43.6364 36.6222C43.375 36.3892 43.0227 36.2727 42.5795 36.2727C42.1875 36.2727 41.8438 36.375 41.5483 36.5795C41.2557 36.7812 41.027 37.0668 40.8622 37.4361C40.7003 37.8026 40.6193 38.233 40.6193 38.7273C40.6193 39.233 40.6989 39.6733 40.858 40.0483C41.0199 40.4233 41.2472 40.7145 41.5398 40.9219C41.8352 41.1293 42.1818 41.233 42.5795 41.233C42.8409 41.233 43.0781 41.1875 43.2912 41.0966C43.5043 41.0057 43.6847 40.875 43.8324 40.7045C43.9801 40.5341 44.0852 40.3295 44.1477 40.0909H45.1534C45.0966 40.4773 44.956 40.8253 44.7315 41.1349C44.5099 41.4418 44.2159 41.6861 43.8494 41.8679C43.4858 42.0469 43.0625 42.1364 42.5795 42.1364ZM47.6293 33.2727V42H46.6236V33.2727H47.6293ZM51.3974 42.1534C50.9826 42.1534 50.6062 42.0753 50.2681 41.919C49.93 41.7599 49.6616 41.5312 49.4627 41.233C49.2638 40.9318 49.1644 40.5682 49.1644 40.142C49.1644 39.767 49.2383 39.4631 49.386 39.2301C49.5337 38.9943 49.7312 38.8097 49.9783 38.6761C50.2255 38.5426 50.4982 38.4432 50.7965 38.3778C51.0977 38.3097 51.4002 38.2557 51.7042 38.2159C52.1019 38.1648 52.4244 38.1264 52.6715 38.1009C52.9215 38.0724 53.1033 38.0256 53.217 37.9602C53.3335 37.8949 53.3917 37.7812 53.3917 37.6193V37.5852C53.3917 37.1648 53.2766 36.8381 53.0465 36.6051C52.8192 36.3722 52.4741 36.2557 52.011 36.2557C51.5309 36.2557 51.1545 36.3608 50.8817 36.571C50.609 36.7812 50.4173 37.0057 50.3065 37.2443L49.3519 36.9034C49.5224 36.5057 49.7496 36.196 50.0337 35.9744C50.3207 35.75 50.6332 35.5937 50.9712 35.5057C51.3121 35.4148 51.6474 35.3693 51.9769 35.3693C52.1871 35.3693 52.4286 35.3949 52.7013 35.446C52.9769 35.4943 53.2425 35.5952 53.4982 35.7486C53.7567 35.902 53.9712 36.1335 54.1417 36.4432C54.3121 36.7528 54.3974 37.1676 54.3974 37.6875V42H53.3917V41.1136H53.3406C53.2724 41.2557 53.1587 41.4077 52.9996 41.5696C52.8406 41.7315 52.6289 41.8693 52.3647 41.983C52.1005 42.0966 51.7781 42.1534 51.3974 42.1534ZM51.5508 41.25C51.9485 41.25 52.2837 41.1719 52.5565 41.0156C52.832 40.8594 53.0394 40.6577 53.1786 40.4105C53.3207 40.1634 53.3917 39.9034 53.3917 39.6307V38.7102C53.3491 38.7614 53.2553 38.8082 53.1104 38.8509C52.9684 38.8906 52.8036 38.9261 52.6161 38.9574C52.4315 38.9858 52.2511 39.0114 52.0749 39.0341C51.9016 39.054 51.761 39.071 51.6531 39.0852C51.3917 39.1193 51.1474 39.1747 50.9201 39.2514C50.6957 39.3253 50.5138 39.4375 50.3746 39.5881C50.2383 39.7358 50.1701 39.9375 50.1701 40.1932C50.1701 40.5426 50.2994 40.8068 50.5579 40.9858C50.8192 41.1619 51.1502 41.25 51.5508 41.25ZM60.8693 36.9205L59.9659 37.1761C59.9091 37.0256 59.8253 36.8793 59.7145 36.7372C59.6065 36.5923 59.4588 36.473 59.2713 36.3793C59.0838 36.2855 58.8438 36.2386 58.5511 36.2386C58.1506 36.2386 57.8168 36.331 57.5497 36.5156C57.2855 36.6974 57.1534 36.929 57.1534 37.2102C57.1534 37.4602 57.2443 37.6577 57.4261 37.8026C57.608 37.9474 57.892 38.0682 58.2784 38.1648L59.25 38.4034C59.8352 38.5455 60.2713 38.7628 60.5582 39.0554C60.8452 39.3452 60.9886 39.7187 60.9886 40.1761C60.9886 40.5511 60.8807 40.8864 60.6648 41.1818C60.4517 41.4773 60.1534 41.7102 59.7699 41.8807C59.3864 42.0511 58.9403 42.1364 58.4318 42.1364C57.7642 42.1364 57.2116 41.9915 56.7741 41.7017C56.3366 41.4119 56.0597 40.9886 55.9432 40.4318L56.8977 40.1932C56.9886 40.5455 57.1605 40.8097 57.4134 40.9858C57.669 41.1619 58.0028 41.25 58.4148 41.25C58.8835 41.25 59.2557 41.1506 59.5312 40.9517C59.8097 40.75 59.9489 40.5085 59.9489 40.2273C59.9489 40 59.8693 39.8097 59.7102 39.6562C59.5511 39.5 59.3068 39.3835 58.9773 39.3068L57.8864 39.0511C57.2869 38.9091 56.8466 38.6889 56.5653 38.3906C56.2869 38.0895 56.1477 37.7131 56.1477 37.2614C56.1477 36.892 56.2514 36.5653 56.4588 36.2812C56.669 35.9972 56.9545 35.7741 57.3153 35.6122C57.679 35.4503 58.0909 35.3693 58.5511 35.3693C59.1989 35.3693 59.7074 35.5114 60.0767 35.7955C60.4489 36.0795 60.7131 36.4545 60.8693 36.9205ZM67.1388 36.9205L66.2354 37.1761C66.1786 37.0256 66.0948 36.8793 65.984 36.7372C65.8761 36.5923 65.7283 36.473 65.5408 36.3793C65.3533 36.2855 65.1133 36.2386 64.8207 36.2386C64.4201 36.2386 64.0863 36.331 63.8192 36.5156C63.555 36.6974 63.4229 36.929 63.4229 37.2102C63.4229 37.4602 63.5138 37.6577 63.6957 37.8026C63.8775 37.9474 64.1616 38.0682 64.5479 38.1648L65.5195 38.4034C66.1048 38.5455 66.5408 38.7628 66.8278 39.0554C67.1147 39.3452 67.2582 39.7187 67.2582 40.1761C67.2582 40.5511 67.1502 40.8864 66.9343 41.1818C66.7212 41.4773 66.4229 41.7102 66.0394 41.8807C65.6559 42.0511 65.2099 42.1364 64.7013 42.1364C64.0337 42.1364 63.4812 41.9915 63.0437 41.7017C62.6062 41.4119 62.3292 40.9886 62.2127 40.4318L63.1673 40.1932C63.2582 40.5455 63.43 40.8097 63.6829 40.9858C63.9386 41.1619 64.2724 41.25 64.6843 41.25C65.1531 41.25 65.5252 41.1506 65.8008 40.9517C66.0792 40.75 66.2184 40.5085 66.2184 40.2273C66.2184 40 66.1388 39.8097 65.9798 39.6562C65.8207 39.5 65.5763 39.3835 65.2468 39.3068L64.1559 39.0511C63.5565 38.9091 63.1161 38.6889 62.8349 38.3906C62.5565 38.0895 62.4173 37.7131 62.4173 37.2614C62.4173 36.892 62.521 36.5653 62.7283 36.2812C62.9386 35.9972 63.2241 35.7741 63.5849 35.6122C63.9485 35.4503 64.3604 35.3693 64.8207 35.3693C65.4684 35.3693 65.9769 35.5114 66.3462 35.7955C66.7184 36.0795 66.9826 36.4545 67.1388 36.9205ZM79.3061 36H78.2493C78.1868 35.696 78.0774 35.429 77.9212 35.1989C77.7678 34.9688 77.5803 34.7756 77.3587 34.6193C77.1399 34.4602 76.897 34.3409 76.63 34.2614C76.3629 34.1818 76.0845 34.142 75.7947 34.142C75.2663 34.142 74.7876 34.2756 74.3587 34.5426C73.9325 34.8097 73.593 35.2031 73.3402 35.723C73.0902 36.2429 72.9652 36.8807 72.9652 37.6364C72.9652 38.392 73.0902 39.0298 73.3402 39.5497C73.593 40.0696 73.9325 40.4631 74.3587 40.7301C74.7876 40.9972 75.2663 41.1307 75.7947 41.1307C76.0845 41.1307 76.3629 41.0909 76.63 41.0114C76.897 40.9318 77.1399 40.8139 77.3587 40.6577C77.5803 40.4986 77.7678 40.304 77.9212 40.0739C78.0774 39.8409 78.1868 39.5739 78.2493 39.2727H79.3061C79.2266 39.7187 79.0817 40.1179 78.8714 40.4702C78.6612 40.8224 78.3999 41.1222 78.0874 41.3693C77.7749 41.6136 77.424 41.7997 77.0348 41.9276C76.6484 42.0554 76.2351 42.1193 75.7947 42.1193C75.0504 42.1193 74.3885 41.9375 73.8089 41.5739C73.2294 41.2102 72.7734 40.6932 72.4411 40.0227C72.1087 39.3523 71.9425 38.5568 71.9425 37.6364C71.9425 36.7159 72.1087 35.9205 72.4411 35.25C72.7734 34.5795 73.2294 34.0625 73.8089 33.6989C74.3885 33.3352 75.0504 33.1534 75.7947 33.1534C76.2351 33.1534 76.6484 33.2173 77.0348 33.3452C77.424 33.473 77.7749 33.6605 78.0874 33.9077C78.3999 34.152 78.6612 34.4503 78.8714 34.8026C79.0817 35.152 79.2266 35.5511 79.3061 36ZM82.3775 40.8068L82.3093 41.267C82.261 41.5909 82.1871 41.9375 82.0877 42.3068C81.9911 42.6761 81.8903 43.0241 81.7852 43.3509C81.68 43.6776 81.5934 43.9375 81.5252 44.1307H80.7582C80.7951 43.9489 80.8434 43.7088 80.9031 43.4105C80.9627 43.1122 81.0224 42.7784 81.082 42.4091C81.1445 42.0426 81.1957 41.6676 81.2354 41.2841L81.2866 40.8068H82.3775ZM81.7638 37.2102C81.5536 37.2102 81.3732 37.1349 81.2227 36.9844C81.0721 36.8338 80.9968 36.6534 80.9968 36.4432C80.9968 36.233 81.0721 36.0526 81.2227 35.902C81.3732 35.7514 81.5536 35.6761 81.7638 35.6761C81.9741 35.6761 82.1545 35.7514 82.305 35.902C82.4556 36.0526 82.5309 36.233 82.5309 36.4432C82.5309 36.5824 82.4954 36.7102 82.4244 36.8267C82.3562 36.9432 82.2638 37.0369 82.1474 37.108C82.0337 37.1761 81.9059 37.2102 81.7638 37.2102ZM90.3601 42.1364C89.7294 42.1364 89.1854 41.9972 88.728 41.7188C88.2734 41.4375 87.9226 41.0455 87.6754 40.5426C87.4311 40.0369 87.3089 39.4489 87.3089 38.7784C87.3089 38.108 87.4311 37.517 87.6754 37.0057C87.9226 36.4915 88.2663 36.0909 88.7067 35.804C89.1499 35.5142 89.6669 35.3693 90.2578 35.3693C90.5987 35.3693 90.9354 35.4261 91.2678 35.5398C91.6001 35.6534 91.9027 35.8381 92.1754 36.0938C92.4482 36.3466 92.6655 36.6818 92.8274 37.0994C92.9893 37.517 93.0703 38.0312 93.0703 38.642V39.0682H88.0249V38.1989H92.0476C92.0476 37.8295 91.9737 37.5 91.826 37.2102C91.6811 36.9205 91.4737 36.6918 91.2038 36.5241C90.9368 36.3565 90.6214 36.2727 90.2578 36.2727C89.8572 36.2727 89.5107 36.3722 89.218 36.571C88.9283 36.767 88.7053 37.0227 88.549 37.3381C88.3928 37.6534 88.3146 37.9915 88.3146 38.3523V38.9318C88.3146 39.4261 88.3999 39.8452 88.5703 40.1889C88.7436 40.5298 88.9837 40.7898 89.2905 40.9688C89.5973 41.1449 89.9538 41.233 90.3601 41.233C90.6243 41.233 90.8629 41.196 91.076 41.1222C91.2919 41.0455 91.478 40.9318 91.6342 40.7812C91.7905 40.6278 91.9112 40.4375 91.9964 40.2102L92.968 40.483C92.8658 40.8125 92.6939 41.1023 92.4524 41.3523C92.2109 41.5994 91.9126 41.7926 91.5575 41.9318C91.2024 42.0682 90.8033 42.1364 90.3601 42.1364ZM95.6058 38.0625V42H94.6001V35.4545H95.5717V36.4773H95.657C95.8104 36.1449 96.0433 35.8778 96.3558 35.6761C96.6683 35.4716 97.0717 35.3693 97.5661 35.3693C98.0092 35.3693 98.397 35.4602 98.7294 35.642C99.0618 35.821 99.3203 36.0938 99.505 36.4602C99.6896 36.8239 99.782 37.2841 99.782 37.8409V42H98.7763V37.9091C98.7763 37.3949 98.6428 36.9943 98.3757 36.7074C98.1087 36.4176 97.7422 36.2727 97.2763 36.2727C96.9553 36.2727 96.6683 36.3423 96.4155 36.4815C96.1655 36.6207 95.968 36.8239 95.8232 37.0909C95.6783 37.358 95.6058 37.6818 95.6058 38.0625ZM104.091 42.1364C103.546 42.1364 103.064 41.9986 102.647 41.723C102.229 41.4446 101.902 41.0526 101.667 40.5469C101.431 40.0384 101.313 39.4375 101.313 38.7443C101.313 38.0568 101.431 37.4602 101.667 36.9545C101.902 36.4489 102.23 36.0582 102.651 35.7827C103.071 35.5071 103.557 35.3693 104.108 35.3693C104.534 35.3693 104.871 35.4403 105.118 35.5824C105.368 35.7216 105.559 35.8807 105.689 36.0597C105.823 36.2358 105.926 36.3807 106 36.4943H106.086V33.2727H107.091V42H106.12V40.9943H106C105.926 41.1136 105.821 41.2642 105.685 41.446C105.549 41.625 105.354 41.7855 105.101 41.9276C104.848 42.0668 104.512 42.1364 104.091 42.1364ZM104.228 41.233C104.631 41.233 104.972 41.1278 105.25 40.9176C105.529 40.7045 105.74 40.4105 105.885 40.0355C106.03 39.6577 106.103 39.2216 106.103 38.7273C106.103 38.2386 106.032 37.8111 105.89 37.4446C105.748 37.0753 105.537 36.7884 105.259 36.5838C104.98 36.3764 104.637 36.2727 104.228 36.2727C103.801 36.2727 103.446 36.3821 103.162 36.6009C102.881 36.8168 102.669 37.1108 102.527 37.483C102.388 37.8523 102.319 38.267 102.319 38.7273C102.319 39.1932 102.39 39.6165 102.532 39.9972C102.676 40.375 102.89 40.6761 103.171 40.9006C103.455 41.1222 103.807 41.233 104.228 41.233Z" fill="black"/>
<path d="M237.83 35.4545C237.778 35.0227 237.571 34.6875 237.207 34.4489C236.844 34.2102 236.398 34.0909 235.869 34.0909C235.483 34.0909 235.145 34.1534 234.855 34.2784C234.568 34.4034 234.344 34.5753 234.182 34.794C234.023 35.0128 233.943 35.2614 233.943 35.5398C233.943 35.7727 233.999 35.973 234.109 36.1406C234.223 36.3054 234.368 36.4432 234.544 36.554C234.72 36.6619 234.905 36.7514 235.098 36.8224C235.291 36.8906 235.469 36.946 235.631 36.9886L236.517 37.2273C236.744 37.2869 236.997 37.3693 237.276 37.4744C237.557 37.5795 237.825 37.723 238.081 37.9048C238.339 38.0838 238.553 38.3139 238.72 38.5952C238.888 38.8764 238.972 39.2216 238.972 39.6307C238.972 40.1023 238.848 40.5284 238.601 40.9091C238.357 41.2898 237.999 41.5923 237.527 41.8168C237.058 42.0412 236.489 42.1534 235.818 42.1534C235.193 42.1534 234.652 42.0526 234.195 41.8509C233.74 41.6491 233.382 41.3679 233.121 41.0071C232.862 40.6463 232.716 40.2273 232.682 39.75H233.773C233.801 40.0795 233.912 40.3523 234.105 40.5682C234.301 40.7812 234.548 40.9403 234.847 41.0455C235.148 41.1477 235.472 41.1989 235.818 41.1989C236.222 41.1989 236.584 41.1335 236.905 41.0028C237.226 40.8693 237.48 40.6847 237.668 40.4489C237.855 40.2102 237.949 39.9318 237.949 39.6136C237.949 39.3239 237.868 39.0881 237.706 38.9062C237.544 38.7244 237.331 38.5767 237.067 38.4631C236.803 38.3494 236.517 38.25 236.21 38.1648L235.136 37.858C234.455 37.6619 233.915 37.3821 233.517 37.0185C233.119 36.6548 232.92 36.179 232.92 35.5909C232.92 35.1023 233.053 34.6761 233.317 34.3125C233.584 33.946 233.942 33.6619 234.391 33.4602C234.842 33.2557 235.347 33.1534 235.903 33.1534C236.466 33.1534 236.966 33.2543 237.403 33.456C237.841 33.6548 238.188 33.9276 238.443 34.2741C238.702 34.6207 238.838 35.0142 238.852 35.4545H237.83ZM240.573 42V35.4545H241.578V42H240.573ZM241.084 34.3636C240.888 34.3636 240.719 34.2969 240.577 34.1634C240.438 34.0298 240.368 33.8693 240.368 33.6818C240.368 33.4943 240.438 33.3338 240.577 33.2003C240.719 33.0668 240.888 33 241.084 33C241.28 33 241.448 33.0668 241.587 33.2003C241.729 33.3338 241.8 33.4943 241.8 33.6818C241.8 33.8693 241.729 34.0298 241.587 34.1634C241.448 34.2969 241.28 34.3636 241.084 34.3636ZM244.426 38.0625V42H243.42V35.4545H244.392V36.4773H244.477C244.631 36.1449 244.864 35.8778 245.176 35.6761C245.489 35.4716 245.892 35.3693 246.386 35.3693C246.83 35.3693 247.217 35.4602 247.55 35.642C247.882 35.821 248.141 36.0938 248.325 36.4602C248.51 36.8239 248.602 37.2841 248.602 37.8409V42H247.597V37.9091C247.597 37.3949 247.463 36.9943 247.196 36.7074C246.929 36.4176 246.563 36.2727 246.097 36.2727C245.776 36.2727 245.489 36.3423 245.236 36.4815C244.986 36.6207 244.788 36.8239 244.643 37.0909C244.499 37.358 244.426 37.6818 244.426 38.0625ZM253.082 44.5909C252.596 44.5909 252.179 44.5284 251.829 44.4034C251.48 44.2812 251.189 44.1193 250.956 43.9176C250.725 43.7188 250.542 43.5057 250.406 43.2784L251.207 42.7159C251.298 42.8352 251.413 42.9716 251.552 43.125C251.691 43.2812 251.882 43.4162 252.123 43.5298C252.368 43.6463 252.687 43.7045 253.082 43.7045C253.61 43.7045 254.047 43.5767 254.39 43.321C254.734 43.0653 254.906 42.6648 254.906 42.1193V40.7898H254.821C254.747 40.9091 254.642 41.0568 254.505 41.233C254.372 41.4062 254.179 41.5611 253.926 41.6974C253.676 41.831 253.338 41.8977 252.912 41.8977C252.383 41.8977 251.909 41.7727 251.488 41.5227C251.071 41.2727 250.74 40.9091 250.495 40.4318C250.254 39.9545 250.133 39.375 250.133 38.6932C250.133 38.0227 250.251 37.4389 250.487 36.9418C250.723 36.4418 251.051 36.0554 251.471 35.7827C251.892 35.5071 252.377 35.3693 252.929 35.3693C253.355 35.3693 253.693 35.4403 253.943 35.5824C254.196 35.7216 254.389 35.8807 254.522 36.0597C254.659 36.2358 254.764 36.3807 254.838 36.4943H254.94V35.4545H255.912V42.1875C255.912 42.75 255.784 43.2074 255.528 43.5597C255.275 43.9148 254.934 44.1747 254.505 44.3395C254.079 44.5071 253.605 44.5909 253.082 44.5909ZM253.048 40.9943C253.451 40.9943 253.792 40.902 254.071 40.7173C254.349 40.5327 254.561 40.267 254.706 39.9205C254.85 39.5739 254.923 39.1591 254.923 38.6761C254.923 38.2045 254.852 37.7884 254.71 37.4276C254.568 37.0668 254.358 36.7841 254.079 36.5795C253.801 36.375 253.457 36.2727 253.048 36.2727C252.622 36.2727 252.267 36.3807 251.983 36.5966C251.701 36.8125 251.49 37.1023 251.348 37.4659C251.208 37.8295 251.139 38.233 251.139 38.6761C251.139 39.1307 251.21 39.5327 251.352 39.8821C251.497 40.2287 251.71 40.5014 251.991 40.7003C252.275 40.8963 252.627 40.9943 253.048 40.9943ZM258.758 33.2727V42H257.752V33.2727H258.758ZM263.344 42.1364C262.714 42.1364 262.17 41.9972 261.712 41.7188C261.258 41.4375 260.907 41.0455 260.66 40.5426C260.415 40.0369 260.293 39.4489 260.293 38.7784C260.293 38.108 260.415 37.517 260.66 37.0057C260.907 36.4915 261.251 36.0909 261.691 35.804C262.134 35.5142 262.651 35.3693 263.242 35.3693C263.583 35.3693 263.92 35.4261 264.252 35.5398C264.585 35.6534 264.887 35.8381 265.16 36.0938C265.433 36.3466 265.65 36.6818 265.812 37.0994C265.974 37.517 266.055 38.0312 266.055 38.642V39.0682H261.009V38.1989H265.032C265.032 37.8295 264.958 37.5 264.81 37.2102C264.665 36.9205 264.458 36.6918 264.188 36.5241C263.921 36.3565 263.606 36.2727 263.242 36.2727C262.842 36.2727 262.495 36.3722 262.202 36.571C261.913 36.767 261.69 37.0227 261.533 37.3381C261.377 37.6534 261.299 37.9915 261.299 38.3523V38.9318C261.299 39.4261 261.384 39.8452 261.555 40.1889C261.728 40.5298 261.968 40.7898 262.275 40.9688C262.582 41.1449 262.938 41.233 263.344 41.233C263.609 41.233 263.847 41.196 264.06 41.1222C264.276 41.0455 264.462 40.9318 264.619 40.7812C264.775 40.6278 264.896 40.4375 264.981 40.2102L265.952 40.483C265.85 40.8125 265.678 41.1023 265.437 41.3523C265.195 41.5994 264.897 41.7926 264.542 41.9318C264.187 42.0682 263.788 42.1364 263.344 42.1364ZM270.431 35.4545V36.3068H267.039V35.4545H270.431ZM268.028 33.8864H269.033V40.125C269.033 40.4091 269.075 40.6222 269.157 40.7642C269.242 40.9034 269.35 40.9972 269.481 41.0455C269.614 41.0909 269.755 41.1136 269.903 41.1136C270.013 41.1136 270.104 41.108 270.175 41.0966C270.246 41.0824 270.303 41.071 270.346 41.0625L270.55 41.9659C270.482 41.9915 270.387 42.017 270.265 42.0426C270.143 42.071 269.988 42.0852 269.8 42.0852C269.516 42.0852 269.238 42.0241 268.965 41.902C268.695 41.7798 268.471 41.5938 268.292 41.3438C268.116 41.0938 268.028 40.7784 268.028 40.3977V33.8864ZM274.533 42.1364C273.942 42.1364 273.423 41.9957 272.977 41.7145C272.534 41.4332 272.188 41.0398 271.938 40.5341C271.69 40.0284 271.567 39.4375 271.567 38.7614C271.567 38.0795 271.69 37.4844 271.938 36.9759C272.188 36.4673 272.534 36.0724 272.977 35.7912C273.423 35.5099 273.942 35.3693 274.533 35.3693C275.124 35.3693 275.641 35.5099 276.084 35.7912C276.53 36.0724 276.876 36.4673 277.124 36.9759C277.374 37.4844 277.499 38.0795 277.499 38.7614C277.499 39.4375 277.374 40.0284 277.124 40.5341C276.876 41.0398 276.53 41.4332 276.084 41.7145C275.641 41.9957 275.124 42.1364 274.533 42.1364ZM274.533 41.233C274.982 41.233 275.351 41.1179 275.641 40.8878C275.93 40.6577 276.145 40.3551 276.284 39.9801C276.423 39.6051 276.493 39.1989 276.493 38.7614C276.493 38.3239 276.423 37.9162 276.284 37.5384C276.145 37.1605 275.93 36.8551 275.641 36.6222C275.351 36.3892 274.982 36.2727 274.533 36.2727C274.084 36.2727 273.714 36.3892 273.425 36.6222C273.135 36.8551 272.92 37.1605 272.781 37.5384C272.642 37.9162 272.572 38.3239 272.572 38.7614C272.572 39.1989 272.642 39.6051 272.781 39.9801C272.92 40.3551 273.135 40.6577 273.425 40.8878C273.714 41.1179 274.084 41.233 274.533 41.233ZM280.039 38.0625V42H279.034V35.4545H280.005V36.4773H280.091C280.244 36.1449 280.477 35.8778 280.789 35.6761C281.102 35.4716 281.505 35.3693 282 35.3693C282.443 35.3693 282.831 35.4602 283.163 35.642C283.495 35.821 283.754 36.0938 283.939 36.4602C284.123 36.8239 284.216 37.2841 284.216 37.8409V42H283.21V37.9091C283.21 37.3949 283.076 36.9943 282.809 36.7074C282.542 36.4176 282.176 36.2727 281.71 36.2727C281.389 36.2727 281.102 36.3423 280.849 36.4815C280.599 36.6207 280.402 36.8239 280.257 37.0909C280.112 37.358 280.039 37.6818 280.039 38.0625ZM292.087 42.1364C291.474 42.1364 290.945 41.9915 290.502 41.7017C290.059 41.4119 289.718 41.0128 289.479 40.5043C289.241 39.9957 289.121 39.4148 289.121 38.7614C289.121 38.0966 289.244 37.5099 289.488 37.0014C289.735 36.4901 290.079 36.0909 290.519 35.804C290.962 35.5142 291.479 35.3693 292.07 35.3693C292.531 35.3693 292.945 35.4545 293.315 35.625C293.684 35.7955 293.987 36.0341 294.222 36.3409C294.458 36.6477 294.604 37.0057 294.661 37.4148H293.656C293.579 37.1165 293.408 36.8523 293.144 36.6222C292.883 36.3892 292.531 36.2727 292.087 36.2727C291.695 36.2727 291.352 36.375 291.056 36.5795C290.763 36.7812 290.535 37.0668 290.37 37.4361C290.208 37.8026 290.127 38.233 290.127 38.7273C290.127 39.233 290.207 39.6733 290.366 40.0483C290.528 40.4233 290.755 40.7145 291.048 40.9219C291.343 41.1293 291.69 41.233 292.087 41.233C292.349 41.233 292.586 41.1875 292.799 41.0966C293.012 41.0057 293.192 40.875 293.34 40.7045C293.488 40.5341 293.593 40.3295 293.656 40.0909H294.661C294.604 40.4773 294.464 40.8253 294.239 41.1349C294.018 41.4418 293.724 41.6861 293.357 41.8679C292.994 42.0469 292.57 42.1364 292.087 42.1364ZM297.137 33.2727V42H296.131V33.2727H297.137ZM300.905 42.1534C300.49 42.1534 300.114 42.0753 299.776 41.919C299.438 41.7599 299.169 41.5312 298.971 41.233C298.772 40.9318 298.672 40.5682 298.672 40.142C298.672 39.767 298.746 39.4631 298.894 39.2301C299.042 38.9943 299.239 38.8097 299.486 38.6761C299.733 38.5426 300.006 38.4432 300.304 38.3778C300.605 38.3097 300.908 38.2557 301.212 38.2159C301.61 38.1648 301.932 38.1264 302.179 38.1009C302.429 38.0724 302.611 38.0256 302.725 37.9602C302.841 37.8949 302.9 37.7812 302.9 37.6193V37.5852C302.9 37.1648 302.784 36.8381 302.554 36.6051C302.327 36.3722 301.982 36.2557 301.519 36.2557C301.039 36.2557 300.662 36.3608 300.39 36.571C300.117 36.7812 299.925 37.0057 299.814 37.2443L298.86 36.9034C299.03 36.5057 299.257 36.196 299.542 35.9744C299.828 35.75 300.141 35.5937 300.479 35.5057C300.82 35.4148 301.155 35.3693 301.485 35.3693C301.695 35.3693 301.936 35.3949 302.209 35.446C302.485 35.4943 302.75 35.5952 303.006 35.7486C303.265 35.902 303.479 36.1335 303.65 36.4432C303.82 36.7528 303.905 37.1676 303.905 37.6875V42H302.9V41.1136H302.848C302.78 41.2557 302.667 41.4077 302.507 41.5696C302.348 41.7315 302.137 41.8693 301.873 41.983C301.608 42.0966 301.286 42.1534 300.905 42.1534ZM301.059 41.25C301.456 41.25 301.792 41.1719 302.064 41.0156C302.34 40.8594 302.547 40.6577 302.686 40.4105C302.828 40.1634 302.9 39.9034 302.9 39.6307V38.7102C302.857 38.7614 302.763 38.8082 302.618 38.8509C302.476 38.8906 302.311 38.9261 302.124 38.9574C301.939 38.9858 301.759 39.0114 301.583 39.0341C301.409 39.054 301.269 39.071 301.161 39.0852C300.9 39.1193 300.655 39.1747 300.428 39.2514C300.203 39.3253 300.022 39.4375 299.882 39.5881C299.746 39.7358 299.678 39.9375 299.678 40.1932C299.678 40.5426 299.807 40.8068 300.066 40.9858C300.327 41.1619 300.658 41.25 301.059 41.25ZM310.377 36.9205L309.474 37.1761C309.417 37.0256 309.333 36.8793 309.222 36.7372C309.114 36.5923 308.967 36.473 308.779 36.3793C308.592 36.2855 308.352 36.2386 308.059 36.2386C307.658 36.2386 307.325 36.331 307.058 36.5156C306.793 36.6974 306.661 36.929 306.661 37.2102C306.661 37.4602 306.752 37.6577 306.934 37.8026C307.116 37.9474 307.4 38.0682 307.786 38.1648L308.758 38.4034C309.343 38.5455 309.779 38.7628 310.066 39.0554C310.353 39.3452 310.496 39.7187 310.496 40.1761C310.496 40.5511 310.388 40.8864 310.173 41.1818C309.96 41.4773 309.661 41.7102 309.278 41.8807C308.894 42.0511 308.448 42.1364 307.94 42.1364C307.272 42.1364 306.719 41.9915 306.282 41.7017C305.844 41.4119 305.567 40.9886 305.451 40.4318L306.406 40.1932C306.496 40.5455 306.668 40.8097 306.921 40.9858C307.177 41.1619 307.511 41.25 307.923 41.25C308.391 41.25 308.763 41.1506 309.039 40.9517C309.317 40.75 309.457 40.5085 309.457 40.2273C309.457 40 309.377 39.8097 309.218 39.6562C309.059 39.5 308.815 39.3835 308.485 39.3068L307.394 39.0511C306.795 38.9091 306.354 38.6889 306.073 38.3906C305.795 38.0895 305.656 37.7131 305.656 37.2614C305.656 36.892 305.759 36.5653 305.967 36.2812C306.177 35.9972 306.462 35.7741 306.823 35.6122C307.187 35.4503 307.599 35.3693 308.059 35.3693C308.707 35.3693 309.215 35.5114 309.585 35.7955C309.957 36.0795 310.221 36.4545 310.377 36.9205ZM316.647 36.9205L315.743 37.1761C315.686 37.0256 315.603 36.8793 315.492 36.7372C315.384 36.5923 315.236 36.473 315.049 36.3793C314.861 36.2855 314.621 36.2386 314.328 36.2386C313.928 36.2386 313.594 36.331 313.327 36.5156C313.063 36.6974 312.931 36.929 312.931 37.2102C312.931 37.4602 313.022 37.6577 313.203 37.8026C313.385 37.9474 313.669 38.0682 314.056 38.1648L315.027 38.4034C315.613 38.5455 316.049 38.7628 316.336 39.0554C316.623 39.3452 316.766 39.7187 316.766 40.1761C316.766 40.5511 316.658 40.8864 316.442 41.1818C316.229 41.4773 315.931 41.7102 315.547 41.8807C315.164 42.0511 314.718 42.1364 314.209 42.1364C313.542 42.1364 312.989 41.9915 312.551 41.7017C312.114 41.4119 311.837 40.9886 311.721 40.4318L312.675 40.1932C312.766 40.5455 312.938 40.8097 313.191 40.9858C313.446 41.1619 313.78 41.25 314.192 41.25C314.661 41.25 315.033 41.1506 315.309 40.9517C315.587 40.75 315.726 40.5085 315.726 40.2273C315.726 40 315.647 39.8097 315.488 39.6562C315.328 39.5 315.084 39.3835 314.755 39.3068L313.664 39.0511C313.064 38.9091 312.624 38.6889 312.343 38.3906C312.064 38.0895 311.925 37.7131 311.925 37.2614C311.925 36.892 312.029 36.5653 312.236 36.2812C312.446 35.9972 312.732 35.7741 313.093 35.6122C313.456 35.4503 313.868 35.3693 314.328 35.3693C314.976 35.3693 315.485 35.5114 315.854 35.7955C316.226 36.0795 316.49 36.4545 316.647 36.9205ZM324.314 42.1364C323.723 42.1364 323.205 41.9957 322.759 41.7145C322.315 41.4332 321.969 41.0398 321.719 40.5341C321.472 40.0284 321.348 39.4375 321.348 38.7614C321.348 38.0795 321.472 37.4844 321.719 36.9759C321.969 36.4673 322.315 36.0724 322.759 35.7912C323.205 35.5099 323.723 35.3693 324.314 35.3693C324.905 35.3693 325.422 35.5099 325.865 35.7912C326.311 36.0724 326.658 36.4673 326.905 36.9759C327.155 37.4844 327.28 38.0795 327.28 38.7614C327.28 39.4375 327.155 40.0284 326.905 40.5341C326.658 41.0398 326.311 41.4332 325.865 41.7145C325.422 41.9957 324.905 42.1364 324.314 42.1364ZM324.314 41.233C324.763 41.233 325.132 41.1179 325.422 40.8878C325.712 40.6577 325.926 40.3551 326.065 39.9801C326.205 39.6051 326.274 39.1989 326.274 38.7614C326.274 38.3239 326.205 37.9162 326.065 37.5384C325.926 37.1605 325.712 36.8551 325.422 36.6222C325.132 36.3892 324.763 36.2727 324.314 36.2727C323.865 36.2727 323.496 36.3892 323.206 36.6222C322.916 36.8551 322.702 37.1605 322.562 37.5384C322.423 37.9162 322.354 38.3239 322.354 38.7614C322.354 39.1989 322.423 39.6051 322.562 39.9801C322.702 40.3551 322.916 40.6577 323.206 40.8878C323.496 41.1179 323.865 41.233 324.314 41.233ZM331.73 35.4545V36.3068H328.201V35.4545H331.73ZM329.258 42V34.5511C329.258 34.1761 329.346 33.8636 329.522 33.6136C329.699 33.3636 329.927 33.1761 330.208 33.0511C330.49 32.9261 330.787 32.8636 331.099 32.8636C331.346 32.8636 331.548 32.8835 331.704 32.9233C331.86 32.9631 331.977 33 332.054 33.0341L331.764 33.9034C331.713 33.8864 331.642 33.8651 331.551 33.8395C331.463 33.8139 331.346 33.8011 331.201 33.8011C330.869 33.8011 330.629 33.8849 330.481 34.0526C330.336 34.2202 330.264 34.4659 330.264 34.7898V42H329.258ZM343.673 36H342.616C342.554 35.696 342.445 35.429 342.288 35.1989C342.135 34.9688 341.947 34.7756 341.726 34.6193C341.507 34.4602 341.264 34.3409 340.997 34.2614C340.73 34.1818 340.452 34.142 340.162 34.142C339.634 34.142 339.155 34.2756 338.726 34.5426C338.3 34.8097 337.96 35.2031 337.707 35.723C337.457 36.2429 337.332 36.8807 337.332 37.6364C337.332 38.392 337.457 39.0298 337.707 39.5497C337.96 40.0696 338.3 40.4631 338.726 40.7301C339.155 40.9972 339.634 41.1307 340.162 41.1307C340.452 41.1307 340.73 41.0909 340.997 41.0114C341.264 40.9318 341.507 40.8139 341.726 40.6577C341.947 40.4986 342.135 40.304 342.288 40.0739C342.445 39.8409 342.554 39.5739 342.616 39.2727H343.673C343.594 39.7187 343.449 40.1179 343.239 40.4702C343.028 40.8224 342.767 41.1222 342.455 41.3693C342.142 41.6136 341.791 41.7997 341.402 41.9276C341.016 42.0554 340.602 42.1193 340.162 42.1193C339.418 42.1193 338.756 41.9375 338.176 41.5739C337.597 41.2102 337.141 40.6932 336.808 40.0227C336.476 39.3523 336.31 38.5568 336.31 37.6364C336.31 36.7159 336.476 35.9205 336.808 35.25C337.141 34.5795 337.597 34.0625 338.176 33.6989C338.756 33.3352 339.418 33.1534 340.162 33.1534C340.602 33.1534 341.016 33.2173 341.402 33.3452C341.791 33.473 342.142 33.6605 342.455 33.9077C342.767 34.152 343.028 34.4503 343.239 34.8026C343.449 35.152 343.594 35.5511 343.673 36Z" fill="black"/>
<path d="M30.5795 180.136C29.9659 180.136 29.4375 179.991 28.9943 179.702C28.5511 179.412 28.2102 179.013 27.9716 178.504C27.733 177.996 27.6136 177.415 27.6136 176.761C27.6136 176.097 27.7358 175.51 27.9801 175.001C28.2273 174.49 28.571 174.091 29.0114 173.804C29.4545 173.514 29.9716 173.369 30.5625 173.369C31.0227 173.369 31.4375 173.455 31.8068 173.625C32.1761 173.795 32.4787 174.034 32.7145 174.341C32.9503 174.648 33.0966 175.006 33.1534 175.415H32.1477C32.071 175.116 31.9006 174.852 31.6364 174.622C31.375 174.389 31.0227 174.273 30.5795 174.273C30.1875 174.273 29.8438 174.375 29.5483 174.58C29.2557 174.781 29.027 175.067 28.8622 175.436C28.7003 175.803 28.6193 176.233 28.6193 176.727C28.6193 177.233 28.6989 177.673 28.858 178.048C29.0199 178.423 29.2472 178.714 29.5398 178.922C29.8352 179.129 30.1818 179.233 30.5795 179.233C30.8409 179.233 31.0781 179.188 31.2912 179.097C31.5043 179.006 31.6847 178.875 31.8324 178.705C31.9801 178.534 32.0852 178.33 32.1477 178.091H33.1534C33.0966 178.477 32.956 178.825 32.7315 179.135C32.5099 179.442 32.2159 179.686 31.8494 179.868C31.4858 180.047 31.0625 180.136 30.5795 180.136ZM35.6293 171.273V180H34.6236V171.273H35.6293ZM39.3974 180.153C38.9826 180.153 38.6062 180.075 38.2681 179.919C37.93 179.76 37.6616 179.531 37.4627 179.233C37.2638 178.932 37.1644 178.568 37.1644 178.142C37.1644 177.767 37.2383 177.463 37.386 177.23C37.5337 176.994 37.7312 176.81 37.9783 176.676C38.2255 176.543 38.4982 176.443 38.7965 176.378C39.0977 176.31 39.4002 176.256 39.7042 176.216C40.1019 176.165 40.4244 176.126 40.6715 176.101C40.9215 176.072 41.1033 176.026 41.217 175.96C41.3335 175.895 41.3917 175.781 41.3917 175.619V175.585C41.3917 175.165 41.2766 174.838 41.0465 174.605C40.8192 174.372 40.4741 174.256 40.011 174.256C39.5309 174.256 39.1545 174.361 38.8817 174.571C38.609 174.781 38.4173 175.006 38.3065 175.244L37.3519 174.903C37.5224 174.506 37.7496 174.196 38.0337 173.974C38.3207 173.75 38.6332 173.594 38.9712 173.506C39.3121 173.415 39.6474 173.369 39.9769 173.369C40.1871 173.369 40.4286 173.395 40.7013 173.446C40.9769 173.494 41.2425 173.595 41.4982 173.749C41.7567 173.902 41.9712 174.134 42.1417 174.443C42.3121 174.753 42.3974 175.168 42.3974 175.688V180H41.3917V179.114H41.3406C41.2724 179.256 41.1587 179.408 40.9996 179.57C40.8406 179.732 40.6289 179.869 40.3647 179.983C40.1005 180.097 39.7781 180.153 39.3974 180.153ZM39.5508 179.25C39.9485 179.25 40.2837 179.172 40.5565 179.016C40.832 178.859 41.0394 178.658 41.1786 178.411C41.3207 178.163 41.3917 177.903 41.3917 177.631V176.71C41.3491 176.761 41.2553 176.808 41.1104 176.851C40.9684 176.891 40.8036 176.926 40.6161 176.957C40.4315 176.986 40.2511 177.011 40.0749 177.034C39.9016 177.054 39.761 177.071 39.6531 177.085C39.3917 177.119 39.1474 177.175 38.9201 177.251C38.6957 177.325 38.5138 177.437 38.3746 177.588C38.2383 177.736 38.1701 177.937 38.1701 178.193C38.1701 178.543 38.2994 178.807 38.5579 178.986C38.8192 179.162 39.1502 179.25 39.5508 179.25ZM48.8693 174.92L47.9659 175.176C47.9091 175.026 47.8253 174.879 47.7145 174.737C47.6065 174.592 47.4588 174.473 47.2713 174.379C47.0838 174.286 46.8438 174.239 46.5511 174.239C46.1506 174.239 45.8168 174.331 45.5497 174.516C45.2855 174.697 45.1534 174.929 45.1534 175.21C45.1534 175.46 45.2443 175.658 45.4261 175.803C45.608 175.947 45.892 176.068 46.2784 176.165L47.25 176.403C47.8352 176.545 48.2713 176.763 48.5582 177.055C48.8452 177.345 48.9886 177.719 48.9886 178.176C48.9886 178.551 48.8807 178.886 48.6648 179.182C48.4517 179.477 48.1534 179.71 47.7699 179.881C47.3864 180.051 46.9403 180.136 46.4318 180.136C45.7642 180.136 45.2116 179.991 44.7741 179.702C44.3366 179.412 44.0597 178.989 43.9432 178.432L44.8977 178.193C44.9886 178.545 45.1605 178.81 45.4134 178.986C45.669 179.162 46.0028 179.25 46.4148 179.25C46.8835 179.25 47.2557 179.151 47.5312 178.952C47.8097 178.75 47.9489 178.509 47.9489 178.227C47.9489 178 47.8693 177.81 47.7102 177.656C47.5511 177.5 47.3068 177.384 46.9773 177.307L45.8864 177.051C45.2869 176.909 44.8466 176.689 44.5653 176.391C44.2869 176.089 44.1477 175.713 44.1477 175.261C44.1477 174.892 44.2514 174.565 44.4588 174.281C44.669 173.997 44.9545 173.774 45.3153 173.612C45.679 173.45 46.0909 173.369 46.5511 173.369C47.1989 173.369 47.7074 173.511 48.0767 173.795C48.4489 174.08 48.7131 174.455 48.8693 174.92ZM55.1388 174.92L54.2354 175.176C54.1786 175.026 54.0948 174.879 53.984 174.737C53.8761 174.592 53.7283 174.473 53.5408 174.379C53.3533 174.286 53.1133 174.239 52.8207 174.239C52.4201 174.239 52.0863 174.331 51.8192 174.516C51.555 174.697 51.4229 174.929 51.4229 175.21C51.4229 175.46 51.5138 175.658 51.6957 175.803C51.8775 175.947 52.1616 176.068 52.5479 176.165L53.5195 176.403C54.1048 176.545 54.5408 176.763 54.8278 177.055C55.1147 177.345 55.2582 177.719 55.2582 178.176C55.2582 178.551 55.1502 178.886 54.9343 179.182C54.7212 179.477 54.4229 179.71 54.0394 179.881C53.6559 180.051 53.2099 180.136 52.7013 180.136C52.0337 180.136 51.4812 179.991 51.0437 179.702C50.6062 179.412 50.3292 178.989 50.2127 178.432L51.1673 178.193C51.2582 178.545 51.43 178.81 51.6829 178.986C51.9386 179.162 52.2724 179.25 52.6843 179.25C53.1531 179.25 53.5252 179.151 53.8008 178.952C54.0792 178.75 54.2184 178.509 54.2184 178.227C54.2184 178 54.1388 177.81 53.9798 177.656C53.8207 177.5 53.5763 177.384 53.2468 177.307L52.1559 177.051C51.5565 176.909 51.1161 176.689 50.8349 176.391C50.5565 176.089 50.4173 175.713 50.4173 175.261C50.4173 174.892 50.521 174.565 50.7283 174.281C50.9386 173.997 51.2241 173.774 51.5849 173.612C51.9485 173.45 52.3604 173.369 52.8207 173.369C53.4684 173.369 53.9769 173.511 54.3462 173.795C54.7184 174.08 54.9826 174.455 55.1388 174.92ZM62.9766 180H60.2834V171.273H63.0959C63.9425 171.273 64.6669 171.447 65.2692 171.797C65.8714 172.143 66.3331 172.642 66.6541 173.293C66.9751 173.94 67.1357 174.716 67.1357 175.619C67.1357 176.528 66.9737 177.311 66.6499 177.967C66.326 178.621 65.8544 179.124 65.2351 179.476C64.6158 179.825 63.8629 180 62.9766 180ZM61.3402 179.062H62.9084C63.63 179.062 64.228 178.923 64.7024 178.645C65.1768 178.366 65.5305 177.97 65.7635 177.456C65.9964 176.942 66.1129 176.33 66.1129 175.619C66.1129 174.915 65.9979 174.308 65.7678 173.8C65.5376 173.288 65.1939 172.896 64.7365 172.624C64.2791 172.348 63.7095 172.21 63.0277 172.21H61.3402V179.062ZM72.4368 176.114V175.432L77.9254 172.636V173.727L73.7152 175.756L73.7493 175.688V175.858L73.7152 175.79L77.9254 177.818V178.909L72.4368 176.114ZM90.5913 174H89.5344C89.4719 173.696 89.3626 173.429 89.2063 173.199C89.0529 172.969 88.8654 172.776 88.6438 172.619C88.4251 172.46 88.1822 172.341 87.9151 172.261C87.6481 172.182 87.3697 172.142 87.0799 172.142C86.5515 172.142 86.0728 172.276 85.6438 172.543C85.2177 172.81 84.8782 173.203 84.6254 173.723C84.3754 174.243 84.2504 174.881 84.2504 175.636C84.2504 176.392 84.3754 177.03 84.6254 177.55C84.8782 178.07 85.2177 178.463 85.6438 178.73C86.0728 178.997 86.5515 179.131 87.0799 179.131C87.3697 179.131 87.6481 179.091 87.9151 179.011C88.1822 178.932 88.4251 178.814 88.6438 178.658C88.8654 178.499 89.0529 178.304 89.2063 178.074C89.3626 177.841 89.4719 177.574 89.5344 177.273H90.5913C90.5117 177.719 90.3668 178.118 90.1566 178.47C89.9464 178.822 89.685 179.122 89.3725 179.369C89.06 179.614 88.7092 179.8 88.32 179.928C87.9336 180.055 87.5202 180.119 87.0799 180.119C86.3356 180.119 85.6737 179.938 85.0941 179.574C84.5146 179.21 84.0586 178.693 83.7262 178.023C83.3938 177.352 83.2276 176.557 83.2276 175.636C83.2276 174.716 83.3938 173.92 83.7262 173.25C84.0586 172.58 84.5146 172.062 85.0941 171.699C85.6737 171.335 86.3356 171.153 87.0799 171.153C87.5202 171.153 87.9336 171.217 88.32 171.345C88.7092 171.473 89.06 171.661 89.3725 171.908C89.685 172.152 89.9464 172.45 90.1566 172.803C90.3668 173.152 90.5117 173.551 90.5913 174ZM93.6626 178.807L93.5945 179.267C93.5462 179.591 93.4723 179.938 93.3729 180.307C93.2763 180.676 93.1754 181.024 93.0703 181.351C92.9652 181.678 92.8786 181.938 92.8104 182.131H92.0433C92.0803 181.949 92.1286 181.709 92.1882 181.411C92.2479 181.112 92.3075 180.778 92.3672 180.409C92.4297 180.043 92.4808 179.668 92.5206 179.284L92.5717 178.807H93.6626ZM93.049 175.21C92.8388 175.21 92.6584 175.135 92.5078 174.984C92.3572 174.834 92.282 174.653 92.282 174.443C92.282 174.233 92.3572 174.053 92.5078 173.902C92.6584 173.751 92.8388 173.676 93.049 173.676C93.2592 173.676 93.4396 173.751 93.5902 173.902C93.7408 174.053 93.8161 174.233 93.8161 174.443C93.8161 174.582 93.7805 174.71 93.7095 174.827C93.6413 174.943 93.549 175.037 93.4325 175.108C93.3189 175.176 93.1911 175.21 93.049 175.21ZM101.645 180.136C101.015 180.136 100.471 179.997 100.013 179.719C99.5586 179.438 99.2077 179.045 98.9606 178.543C98.7163 178.037 98.5941 177.449 98.5941 176.778C98.5941 176.108 98.7163 175.517 98.9606 175.006C99.2077 174.491 99.5515 174.091 99.9918 173.804C100.435 173.514 100.952 173.369 101.543 173.369C101.884 173.369 102.221 173.426 102.553 173.54C102.885 173.653 103.188 173.838 103.461 174.094C103.733 174.347 103.951 174.682 104.113 175.099C104.275 175.517 104.355 176.031 104.355 176.642V177.068H99.31V176.199H103.333C103.333 175.83 103.259 175.5 103.111 175.21C102.966 174.92 102.759 174.692 102.489 174.524C102.222 174.357 101.907 174.273 101.543 174.273C101.142 174.273 100.796 174.372 100.503 174.571C100.213 174.767 99.9904 175.023 99.8342 175.338C99.6779 175.653 99.5998 175.991 99.5998 176.352V176.932C99.5998 177.426 99.685 177.845 99.8555 178.189C100.029 178.53 100.269 178.79 100.576 178.969C100.882 179.145 101.239 179.233 101.645 179.233C101.909 179.233 102.148 179.196 102.361 179.122C102.577 179.045 102.763 178.932 102.919 178.781C103.076 178.628 103.196 178.437 103.282 178.21L104.253 178.483C104.151 178.812 103.979 179.102 103.738 179.352C103.496 179.599 103.198 179.793 102.843 179.932C102.488 180.068 102.088 180.136 101.645 180.136ZM106.891 176.062V180H105.885V173.455H106.857V174.477H106.942C107.096 174.145 107.328 173.878 107.641 173.676C107.953 173.472 108.357 173.369 108.851 173.369C109.294 173.369 109.682 173.46 110.015 173.642C110.347 173.821 110.605 174.094 110.79 174.46C110.975 174.824 111.067 175.284 111.067 175.841V180H110.061V175.909C110.061 175.395 109.928 174.994 109.661 174.707C109.394 174.418 109.027 174.273 108.561 174.273C108.24 174.273 107.953 174.342 107.701 174.482C107.451 174.621 107.253 174.824 107.108 175.091C106.963 175.358 106.891 175.682 106.891 176.062ZM115.376 180.136C114.831 180.136 114.349 179.999 113.932 179.723C113.514 179.445 113.188 179.053 112.952 178.547C112.716 178.038 112.598 177.438 112.598 176.744C112.598 176.057 112.716 175.46 112.952 174.955C113.188 174.449 113.516 174.058 113.936 173.783C114.357 173.507 114.842 173.369 115.393 173.369C115.82 173.369 116.156 173.44 116.403 173.582C116.653 173.722 116.844 173.881 116.974 174.06C117.108 174.236 117.212 174.381 117.286 174.494H117.371V171.273H118.376V180H117.405V178.994H117.286C117.212 179.114 117.107 179.264 116.97 179.446C116.834 179.625 116.639 179.786 116.386 179.928C116.134 180.067 115.797 180.136 115.376 180.136ZM115.513 179.233C115.916 179.233 116.257 179.128 116.536 178.918C116.814 178.705 117.026 178.411 117.17 178.036C117.315 177.658 117.388 177.222 117.388 176.727C117.388 176.239 117.317 175.811 117.175 175.445C117.033 175.075 116.822 174.788 116.544 174.584C116.266 174.376 115.922 174.273 115.513 174.273C115.087 174.273 114.732 174.382 114.447 174.601C114.166 174.817 113.955 175.111 113.812 175.483C113.673 175.852 113.604 176.267 113.604 176.727C113.604 177.193 113.675 177.616 113.817 177.997C113.962 178.375 114.175 178.676 114.456 178.901C114.74 179.122 115.092 179.233 115.513 179.233Z" fill="black"/>
<path d="M239.83 173.455C239.778 173.023 239.571 172.688 239.207 172.449C238.844 172.21 238.398 172.091 237.869 172.091C237.483 172.091 237.145 172.153 236.855 172.278C236.568 172.403 236.344 172.575 236.182 172.794C236.023 173.013 235.943 173.261 235.943 173.54C235.943 173.773 235.999 173.973 236.109 174.141C236.223 174.305 236.368 174.443 236.544 174.554C236.72 174.662 236.905 174.751 237.098 174.822C237.291 174.891 237.469 174.946 237.631 174.989L238.517 175.227C238.744 175.287 238.997 175.369 239.276 175.474C239.557 175.58 239.825 175.723 240.081 175.905C240.339 176.084 240.553 176.314 240.72 176.595C240.888 176.876 240.972 177.222 240.972 177.631C240.972 178.102 240.848 178.528 240.601 178.909C240.357 179.29 239.999 179.592 239.527 179.817C239.058 180.041 238.489 180.153 237.818 180.153C237.193 180.153 236.652 180.053 236.195 179.851C235.74 179.649 235.382 179.368 235.121 179.007C234.862 178.646 234.716 178.227 234.682 177.75H235.773C235.801 178.08 235.912 178.352 236.105 178.568C236.301 178.781 236.548 178.94 236.847 179.045C237.148 179.148 237.472 179.199 237.818 179.199C238.222 179.199 238.584 179.134 238.905 179.003C239.226 178.869 239.48 178.685 239.668 178.449C239.855 178.21 239.949 177.932 239.949 177.614C239.949 177.324 239.868 177.088 239.706 176.906C239.544 176.724 239.331 176.577 239.067 176.463C238.803 176.349 238.517 176.25 238.21 176.165L237.136 175.858C236.455 175.662 235.915 175.382 235.517 175.018C235.119 174.655 234.92 174.179 234.92 173.591C234.92 173.102 235.053 172.676 235.317 172.312C235.584 171.946 235.942 171.662 236.391 171.46C236.842 171.256 237.347 171.153 237.903 171.153C238.466 171.153 238.966 171.254 239.403 171.456C239.841 171.655 240.188 171.928 240.443 172.274C240.702 172.621 240.838 173.014 240.852 173.455H239.83ZM242.573 180V173.455H243.578V180H242.573ZM243.084 172.364C242.888 172.364 242.719 172.297 242.577 172.163C242.438 172.03 242.368 171.869 242.368 171.682C242.368 171.494 242.438 171.334 242.577 171.2C242.719 171.067 242.888 171 243.084 171C243.28 171 243.448 171.067 243.587 171.2C243.729 171.334 243.8 171.494 243.8 171.682C243.8 171.869 243.729 172.03 243.587 172.163C243.448 172.297 243.28 172.364 243.084 172.364ZM246.426 176.062V180H245.42V173.455H246.392V174.477H246.477C246.631 174.145 246.864 173.878 247.176 173.676C247.489 173.472 247.892 173.369 248.386 173.369C248.83 173.369 249.217 173.46 249.55 173.642C249.882 173.821 250.141 174.094 250.325 174.46C250.51 174.824 250.602 175.284 250.602 175.841V180H249.597V175.909C249.597 175.395 249.463 174.994 249.196 174.707C248.929 174.418 248.563 174.273 248.097 174.273C247.776 174.273 247.489 174.342 247.236 174.482C246.986 174.621 246.788 174.824 246.643 175.091C246.499 175.358 246.426 175.682 246.426 176.062ZM255.082 182.591C254.596 182.591 254.179 182.528 253.829 182.403C253.48 182.281 253.189 182.119 252.956 181.918C252.725 181.719 252.542 181.506 252.406 181.278L253.207 180.716C253.298 180.835 253.413 180.972 253.552 181.125C253.691 181.281 253.882 181.416 254.123 181.53C254.368 181.646 254.687 181.705 255.082 181.705C255.61 181.705 256.047 181.577 256.39 181.321C256.734 181.065 256.906 180.665 256.906 180.119V178.79H256.821C256.747 178.909 256.642 179.057 256.505 179.233C256.372 179.406 256.179 179.561 255.926 179.697C255.676 179.831 255.338 179.898 254.912 179.898C254.383 179.898 253.909 179.773 253.488 179.523C253.071 179.273 252.74 178.909 252.495 178.432C252.254 177.955 252.133 177.375 252.133 176.693C252.133 176.023 252.251 175.439 252.487 174.942C252.723 174.442 253.051 174.055 253.471 173.783C253.892 173.507 254.377 173.369 254.929 173.369C255.355 173.369 255.693 173.44 255.943 173.582C256.196 173.722 256.389 173.881 256.522 174.06C256.659 174.236 256.764 174.381 256.838 174.494H256.94V173.455H257.912V180.188C257.912 180.75 257.784 181.207 257.528 181.56C257.275 181.915 256.934 182.175 256.505 182.339C256.079 182.507 255.605 182.591 255.082 182.591ZM255.048 178.994C255.451 178.994 255.792 178.902 256.071 178.717C256.349 178.533 256.561 178.267 256.706 177.92C256.85 177.574 256.923 177.159 256.923 176.676C256.923 176.205 256.852 175.788 256.71 175.428C256.568 175.067 256.358 174.784 256.079 174.58C255.801 174.375 255.457 174.273 255.048 174.273C254.622 174.273 254.267 174.381 253.983 174.597C253.701 174.812 253.49 175.102 253.348 175.466C253.208 175.83 253.139 176.233 253.139 176.676C253.139 177.131 253.21 177.533 253.352 177.882C253.497 178.229 253.71 178.501 253.991 178.7C254.275 178.896 254.627 178.994 255.048 178.994ZM260.758 171.273V180H259.752V171.273H260.758ZM265.344 180.136C264.714 180.136 264.17 179.997 263.712 179.719C263.258 179.438 262.907 179.045 262.66 178.543C262.415 178.037 262.293 177.449 262.293 176.778C262.293 176.108 262.415 175.517 262.66 175.006C262.907 174.491 263.251 174.091 263.691 173.804C264.134 173.514 264.651 173.369 265.242 173.369C265.583 173.369 265.92 173.426 266.252 173.54C266.585 173.653 266.887 173.838 267.16 174.094C267.433 174.347 267.65 174.682 267.812 175.099C267.974 175.517 268.055 176.031 268.055 176.642V177.068H263.009V176.199H267.032C267.032 175.83 266.958 175.5 266.81 175.21C266.665 174.92 266.458 174.692 266.188 174.524C265.921 174.357 265.606 174.273 265.242 174.273C264.842 174.273 264.495 174.372 264.202 174.571C263.913 174.767 263.69 175.023 263.533 175.338C263.377 175.653 263.299 175.991 263.299 176.352V176.932C263.299 177.426 263.384 177.845 263.555 178.189C263.728 178.53 263.968 178.79 264.275 178.969C264.582 179.145 264.938 179.233 265.344 179.233C265.609 179.233 265.847 179.196 266.06 179.122C266.276 179.045 266.462 178.932 266.619 178.781C266.775 178.628 266.896 178.437 266.981 178.21L267.952 178.483C267.85 178.812 267.678 179.102 267.437 179.352C267.195 179.599 266.897 179.793 266.542 179.932C266.187 180.068 265.788 180.136 265.344 180.136ZM272.431 173.455V174.307H269.039V173.455H272.431ZM270.028 171.886H271.033V178.125C271.033 178.409 271.075 178.622 271.157 178.764C271.242 178.903 271.35 178.997 271.481 179.045C271.614 179.091 271.755 179.114 271.903 179.114C272.013 179.114 272.104 179.108 272.175 179.097C272.246 179.082 272.303 179.071 272.346 179.062L272.55 179.966C272.482 179.991 272.387 180.017 272.265 180.043C272.143 180.071 271.988 180.085 271.8 180.085C271.516 180.085 271.238 180.024 270.965 179.902C270.695 179.78 270.471 179.594 270.292 179.344C270.116 179.094 270.028 178.778 270.028 178.398V171.886ZM276.533 180.136C275.942 180.136 275.423 179.996 274.977 179.714C274.534 179.433 274.188 179.04 273.938 178.534C273.69 178.028 273.567 177.437 273.567 176.761C273.567 176.08 273.69 175.484 273.938 174.976C274.188 174.467 274.534 174.072 274.977 173.791C275.423 173.51 275.942 173.369 276.533 173.369C277.124 173.369 277.641 173.51 278.084 173.791C278.53 174.072 278.876 174.467 279.124 174.976C279.374 175.484 279.499 176.08 279.499 176.761C279.499 177.437 279.374 178.028 279.124 178.534C278.876 179.04 278.53 179.433 278.084 179.714C277.641 179.996 277.124 180.136 276.533 180.136ZM276.533 179.233C276.982 179.233 277.351 179.118 277.641 178.888C277.93 178.658 278.145 178.355 278.284 177.98C278.423 177.605 278.493 177.199 278.493 176.761C278.493 176.324 278.423 175.916 278.284 175.538C278.145 175.161 277.93 174.855 277.641 174.622C277.351 174.389 276.982 174.273 276.533 174.273C276.084 174.273 275.714 174.389 275.425 174.622C275.135 174.855 274.92 175.161 274.781 175.538C274.642 175.916 274.572 176.324 274.572 176.761C274.572 177.199 274.642 177.605 274.781 177.98C274.92 178.355 275.135 178.658 275.425 178.888C275.714 179.118 276.084 179.233 276.533 179.233ZM282.039 176.062V180H281.034V173.455H282.005V174.477H282.091C282.244 174.145 282.477 173.878 282.789 173.676C283.102 173.472 283.505 173.369 284 173.369C284.443 173.369 284.831 173.46 285.163 173.642C285.495 173.821 285.754 174.094 285.939 174.46C286.123 174.824 286.216 175.284 286.216 175.841V180H285.21V175.909C285.21 175.395 285.076 174.994 284.809 174.707C284.542 174.418 284.176 174.273 283.71 174.273C283.389 174.273 283.102 174.342 282.849 174.482C282.599 174.621 282.402 174.824 282.257 175.091C282.112 175.358 282.039 175.682 282.039 176.062ZM294.087 180.136C293.474 180.136 292.945 179.991 292.502 179.702C292.059 179.412 291.718 179.013 291.479 178.504C291.241 177.996 291.121 177.415 291.121 176.761C291.121 176.097 291.244 175.51 291.488 175.001C291.735 174.49 292.079 174.091 292.519 173.804C292.962 173.514 293.479 173.369 294.07 173.369C294.531 173.369 294.945 173.455 295.315 173.625C295.684 173.795 295.987 174.034 296.222 174.341C296.458 174.648 296.604 175.006 296.661 175.415H295.656C295.579 175.116 295.408 174.852 295.144 174.622C294.883 174.389 294.531 174.273 294.087 174.273C293.695 174.273 293.352 174.375 293.056 174.58C292.763 174.781 292.535 175.067 292.37 175.436C292.208 175.803 292.127 176.233 292.127 176.727C292.127 177.233 292.207 177.673 292.366 178.048C292.528 178.423 292.755 178.714 293.048 178.922C293.343 179.129 293.69 179.233 294.087 179.233C294.349 179.233 294.586 179.188 294.799 179.097C295.012 179.006 295.192 178.875 295.34 178.705C295.488 178.534 295.593 178.33 295.656 178.091H296.661C296.604 178.477 296.464 178.825 296.239 179.135C296.018 179.442 295.724 179.686 295.357 179.868C294.994 180.047 294.57 180.136 294.087 180.136ZM299.137 171.273V180H298.131V171.273H299.137ZM302.905 180.153C302.49 180.153 302.114 180.075 301.776 179.919C301.438 179.76 301.169 179.531 300.971 179.233C300.772 178.932 300.672 178.568 300.672 178.142C300.672 177.767 300.746 177.463 300.894 177.23C301.042 176.994 301.239 176.81 301.486 176.676C301.733 176.543 302.006 176.443 302.304 176.378C302.605 176.31 302.908 176.256 303.212 176.216C303.61 176.165 303.932 176.126 304.179 176.101C304.429 176.072 304.611 176.026 304.725 175.96C304.841 175.895 304.9 175.781 304.9 175.619V175.585C304.9 175.165 304.784 174.838 304.554 174.605C304.327 174.372 303.982 174.256 303.519 174.256C303.039 174.256 302.662 174.361 302.39 174.571C302.117 174.781 301.925 175.006 301.814 175.244L300.86 174.903C301.03 174.506 301.257 174.196 301.542 173.974C301.828 173.75 302.141 173.594 302.479 173.506C302.82 173.415 303.155 173.369 303.485 173.369C303.695 173.369 303.936 173.395 304.209 173.446C304.485 173.494 304.75 173.595 305.006 173.749C305.265 173.902 305.479 174.134 305.65 174.443C305.82 174.753 305.905 175.168 305.905 175.688V180H304.9V179.114H304.848C304.78 179.256 304.667 179.408 304.507 179.57C304.348 179.732 304.137 179.869 303.873 179.983C303.608 180.097 303.286 180.153 302.905 180.153ZM303.059 179.25C303.456 179.25 303.792 179.172 304.064 179.016C304.34 178.859 304.547 178.658 304.686 178.411C304.828 178.163 304.9 177.903 304.9 177.631V176.71C304.857 176.761 304.763 176.808 304.618 176.851C304.476 176.891 304.311 176.926 304.124 176.957C303.939 176.986 303.759 177.011 303.583 177.034C303.409 177.054 303.269 177.071 303.161 177.085C302.9 177.119 302.655 177.175 302.428 177.251C302.203 177.325 302.022 177.437 301.882 177.588C301.746 177.736 301.678 177.937 301.678 178.193C301.678 178.543 301.807 178.807 302.066 178.986C302.327 179.162 302.658 179.25 303.059 179.25ZM312.377 174.92L311.474 175.176C311.417 175.026 311.333 174.879 311.222 174.737C311.114 174.592 310.967 174.473 310.779 174.379C310.592 174.286 310.352 174.239 310.059 174.239C309.658 174.239 309.325 174.331 309.058 174.516C308.793 174.697 308.661 174.929 308.661 175.21C308.661 175.46 308.752 175.658 308.934 175.803C309.116 175.947 309.4 176.068 309.786 176.165L310.758 176.403C311.343 176.545 311.779 176.763 312.066 177.055C312.353 177.345 312.496 177.719 312.496 178.176C312.496 178.551 312.388 178.886 312.173 179.182C311.96 179.477 311.661 179.71 311.278 179.881C310.894 180.051 310.448 180.136 309.94 180.136C309.272 180.136 308.719 179.991 308.282 179.702C307.844 179.412 307.567 178.989 307.451 178.432L308.406 178.193C308.496 178.545 308.668 178.81 308.921 178.986C309.177 179.162 309.511 179.25 309.923 179.25C310.391 179.25 310.763 179.151 311.039 178.952C311.317 178.75 311.457 178.509 311.457 178.227C311.457 178 311.377 177.81 311.218 177.656C311.059 177.5 310.815 177.384 310.485 177.307L309.394 177.051C308.795 176.909 308.354 176.689 308.073 176.391C307.795 176.089 307.656 175.713 307.656 175.261C307.656 174.892 307.759 174.565 307.967 174.281C308.177 173.997 308.462 173.774 308.823 173.612C309.187 173.45 309.599 173.369 310.059 173.369C310.707 173.369 311.215 173.511 311.585 173.795C311.957 174.08 312.221 174.455 312.377 174.92ZM318.647 174.92L317.743 175.176C317.686 175.026 317.603 174.879 317.492 174.737C317.384 174.592 317.236 174.473 317.049 174.379C316.861 174.286 316.621 174.239 316.328 174.239C315.928 174.239 315.594 174.331 315.327 174.516C315.063 174.697 314.931 174.929 314.931 175.21C314.931 175.46 315.022 175.658 315.203 175.803C315.385 175.947 315.669 176.068 316.056 176.165L317.027 176.403C317.613 176.545 318.049 176.763 318.336 177.055C318.623 177.345 318.766 177.719 318.766 178.176C318.766 178.551 318.658 178.886 318.442 179.182C318.229 179.477 317.931 179.71 317.547 179.881C317.164 180.051 316.718 180.136 316.209 180.136C315.542 180.136 314.989 179.991 314.551 179.702C314.114 179.412 313.837 178.989 313.721 178.432L314.675 178.193C314.766 178.545 314.938 178.81 315.191 178.986C315.446 179.162 315.78 179.25 316.192 179.25C316.661 179.25 317.033 179.151 317.309 178.952C317.587 178.75 317.726 178.509 317.726 178.227C317.726 178 317.647 177.81 317.488 177.656C317.328 177.5 317.084 177.384 316.755 177.307L315.664 177.051C315.064 176.909 314.624 176.689 314.343 176.391C314.064 176.089 313.925 175.713 313.925 175.261C313.925 174.892 314.029 174.565 314.236 174.281C314.446 173.997 314.732 173.774 315.093 173.612C315.456 173.45 315.868 173.369 316.328 173.369C316.976 173.369 317.485 173.511 317.854 173.795C318.226 174.08 318.49 174.455 318.647 174.92ZM326.314 180.136C325.723 180.136 325.205 179.996 324.759 179.714C324.315 179.433 323.969 179.04 323.719 178.534C323.472 178.028 323.348 177.437 323.348 176.761C323.348 176.08 323.472 175.484 323.719 174.976C323.969 174.467 324.315 174.072 324.759 173.791C325.205 173.51 325.723 173.369 326.314 173.369C326.905 173.369 327.422 173.51 327.865 173.791C328.311 174.072 328.658 174.467 328.905 174.976C329.155 175.484 329.28 176.08 329.28 176.761C329.28 177.437 329.155 178.028 328.905 178.534C328.658 179.04 328.311 179.433 327.865 179.714C327.422 179.996 326.905 180.136 326.314 180.136ZM326.314 179.233C326.763 179.233 327.132 179.118 327.422 178.888C327.712 178.658 327.926 178.355 328.065 177.98C328.205 177.605 328.274 177.199 328.274 176.761C328.274 176.324 328.205 175.916 328.065 175.538C327.926 175.161 327.712 174.855 327.422 174.622C327.132 174.389 326.763 174.273 326.314 174.273C325.865 174.273 325.496 174.389 325.206 174.622C324.916 174.855 324.702 175.161 324.562 175.538C324.423 175.916 324.354 176.324 324.354 176.761C324.354 177.199 324.423 177.605 324.562 177.98C324.702 178.355 324.916 178.658 325.206 178.888C325.496 179.118 325.865 179.233 326.314 179.233ZM333.73 173.455V174.307H330.201V173.455H333.73ZM331.258 180V172.551C331.258 172.176 331.346 171.864 331.522 171.614C331.699 171.364 331.927 171.176 332.208 171.051C332.49 170.926 332.787 170.864 333.099 170.864C333.346 170.864 333.548 170.884 333.704 170.923C333.86 170.963 333.977 171 334.054 171.034L333.764 171.903C333.713 171.886 333.642 171.865 333.551 171.839C333.463 171.814 333.346 171.801 333.201 171.801C332.869 171.801 332.629 171.885 332.481 172.053C332.336 172.22 332.264 172.466 332.264 172.79V180H331.258ZM341.344 180H338.651V171.273H341.463C342.31 171.273 343.034 171.447 343.636 171.797C344.239 172.143 344.7 172.642 345.021 173.293C345.342 173.94 345.503 174.716 345.503 175.619C345.503 176.528 345.341 177.311 345.017 177.967C344.693 178.621 344.222 179.124 343.602 179.476C342.983 179.825 342.23 180 341.344 180ZM339.707 179.062H341.276C341.997 179.062 342.595 178.923 343.07 178.645C343.544 178.366 343.898 177.97 344.131 177.456C344.364 176.942 344.48 176.33 344.48 175.619C344.48 174.915 344.365 174.308 344.135 173.8C343.905 173.288 343.561 172.896 343.104 172.624C342.646 172.348 342.077 172.21 341.395 172.21H339.707V179.062Z" fill="black"/>
<path d="M76.6464 138.354C76.8417 138.549 77.1583 138.549 77.3536 138.354L80.5355 135.172C80.7308 134.976 80.7308 134.66 80.5355 134.464C80.3403 134.269 80.0237 134.269 79.8284 134.464L77 137.293L74.1716 134.464C73.9763 134.269 73.6597 134.269 73.4645 134.464C73.2692 134.66 73.2692 134.976 73.4645 135.172L76.6464 138.354ZM76.5 76L76.5 138H77.5L77.5 76H76.5Z" fill="#D3D3D3"/>
<path d="M291.646 138.354C291.842 138.549 292.158 138.549 292.354 138.354L295.536 135.172C295.731 134.976 295.731 134.66 295.536 134.464C295.34 134.269 295.024 134.269 294.828 134.464L292 137.293L289.172 134.464C288.976 134.269 288.66 134.269 288.464 134.464C288.269 134.66 288.269 134.976 288.464 135.172L291.646 138.354ZM291.5 76V138H292.5V76H291.5Z" fill="#D3D3D3"/>
<path d="M152.646 37.6464C152.451 37.8417 152.451 38.1583 152.646 38.3536L155.828 41.5355C156.024 41.7308 156.34 41.7308 156.536 41.5355C156.731 41.3403 156.731 41.0237 156.536 40.8284L153.707 38L156.536 35.1716C156.731 34.9763 156.731 34.6597 156.536 34.4645C156.34 34.2692 156.024 34.2692 155.828 34.4645L152.646 37.6464ZM215 37.5H213.062V38.5H215V37.5ZM209.188 37.5H205.312V38.5H209.188V37.5ZM201.438 37.5H197.562V38.5H201.438V37.5ZM193.688 37.5H189.812V38.5H193.688V37.5ZM185.938 37.5H182.062V38.5H185.938V37.5ZM178.188 37.5H174.312V38.5H178.188V37.5ZM170.438 37.5H166.562V38.5H170.438V37.5ZM162.688 37.5H158.812V38.5H162.688V37.5ZM154.938 37.5H153V38.5H154.938V37.5ZM152.293 37.2929C151.902 37.6834 151.902 38.3166 152.293 38.7071L158.657 45.0711C159.047 45.4616 159.681 45.4616 160.071 45.0711C160.462 44.6805 160.462 44.0474 160.071 43.6569L154.414 38L160.071 32.3431C160.462 31.9526 160.462 31.3195 160.071 30.9289C159.681 30.5384 159.047 30.5384 158.657 30.9289L152.293 37.2929ZM215 37H213.062V39H215V37ZM209.188 37H205.312V39H209.188V37ZM201.438 37H197.562V39H201.438V37ZM193.688 37H189.812V39H193.688V37ZM185.938 37H182.062V39H185.938V37ZM178.188 37H174.312V39H178.188V37ZM170.438 37H166.562V39H170.438V37ZM162.688 37H158.812V39H162.688V37ZM154.938 37H153V39H154.938V37Z" fill="#D3D3D3"/>
<path d="M152.646 175.646C152.451 175.842 152.451 176.158 152.646 176.354L155.828 179.536C156.024 179.731 156.34 179.731 156.536 179.536C156.731 179.34 156.731 179.024 156.536 178.828L153.707 176L156.536 173.172C156.731 172.976 156.731 172.66 156.536 172.464C156.34 172.269 156.024 172.269 155.828 172.464L152.646 175.646ZM215 175.5H213.062V176.5H215V175.5ZM209.188 175.5H205.312V176.5H209.188V175.5ZM201.438 175.5H197.562V176.5H201.438V175.5ZM193.688 175.5H189.812V176.5H193.688V175.5ZM185.938 175.5H182.062V176.5H185.938V175.5ZM178.188 175.5H174.312V176.5H178.188V175.5ZM170.438 175.5H166.562V176.5H170.438V175.5ZM162.688 175.5H158.812V176.5H162.688V175.5ZM154.938 175.5H153V176.5H154.938V175.5ZM152.293 175.293C151.902 175.683 151.902 176.317 152.293 176.707L158.657 183.071C159.047 183.462 159.681 183.462 160.071 183.071C160.462 182.681 160.462 182.047 160.071 181.657L154.414 176L160.071 170.343C160.462 169.953 160.462 169.319 160.071 168.929C159.681 168.538 159.047 168.538 158.657 168.929L152.293 175.293ZM215 175H213.062V177H215V175ZM209.188 175H205.312V177H209.188V175ZM201.438 175H197.562V177H201.438V175ZM193.688 175H189.812V177H193.688V175ZM185.938 175H182.062V177H185.938V175ZM178.188 175H174.312V177H178.188V175ZM170.438 175H166.562V177H170.438V175ZM162.688 175H158.812V177H162.688V175ZM154.938 175H153V177H154.938V175Z" fill="#D3D3D3"/>
<rect x="431" y="1" width="219" height="74" fill="white" stroke="black" stroke-width="2"/>
<path d="M509.354 23.3536C509.549 23.1583 509.549 22.8417 509.354 22.6464L506.172 19.4645C505.976 19.2692 505.66 19.2692 505.464 19.4645C505.269 19.6597 505.269 19.9763 505.464 20.1716L508.293 23L505.464 25.8284C505.269 26.0237 505.269 26.3403 505.464 26.5355C505.66 26.7308 505.976 26.7308 506.172 26.5355L509.354 23.3536ZM447 23.5H448.938V22.5H447V23.5ZM452.812 23.5H456.688V22.5H452.812V23.5ZM460.562 23.5H464.438V22.5H460.562V23.5ZM468.312 23.5H472.188V22.5H468.312V23.5ZM476.062 23.5H479.938V22.5H476.062V23.5ZM483.812 23.5H487.688V22.5H483.812V23.5ZM491.562 23.5H495.438V22.5H491.562V23.5ZM499.312 23.5H503.188V22.5H499.312V23.5ZM507.062 23.5H509V22.5H507.062V23.5ZM509.707 23.7071C510.098 23.3166 510.098 22.6834 509.707 22.2929L503.343 15.9289C502.953 15.5384 502.319 15.5384 501.929 15.9289C501.538 16.3195 501.538 16.9526 501.929 17.3431L507.586 23L501.929 28.6569C501.538 29.0474 501.538 29.6805 501.929 30.0711C502.319 30.4616 502.953 30.4616 503.343 30.0711L509.707 23.7071ZM447 24H448.938V22H447V24ZM452.812 24H456.688V22H452.812V24ZM460.562 24H464.438V22H460.562V24ZM468.312 24H472.188V22H468.312V24ZM476.062 24H479.938V22H476.062V24ZM483.812 24H487.688V22H483.812V24ZM491.562 24H495.438V22H491.562V24ZM499.312 24H503.188V22H499.312V24ZM507.062 24H509V22H507.062V24Z" fill="black"/>
<path d="M509.354 53.3536C509.549 53.1583 509.549 52.8417 509.354 52.6464L506.172 49.4645C505.976 49.2692 505.66 49.2692 505.464 49.4645C505.269 49.6597 505.269 49.9763 505.464 50.1716L508.293 53L505.464 55.8284C505.269 56.0237 505.269 56.3403 505.464 56.5355C505.66 56.7308 505.976 56.7308 506.172 56.5355L509.354 53.3536ZM447 53.5H509V52.5H447V53.5Z" fill="black"/>
<path d="M536.83 22.4545C536.778 22.0227 536.571 21.6875 536.207 21.4489C535.844 21.2102 535.398 21.0909 534.869 21.0909C534.483 21.0909 534.145 21.1534 533.855 21.2784C533.568 21.4034 533.344 21.5753 533.182 21.794C533.023 22.0128 532.943 22.2614 532.943 22.5398C532.943 22.7727 532.999 22.973 533.109 23.1406C533.223 23.3054 533.368 23.4432 533.544 23.554C533.72 23.6619 533.905 23.7514 534.098 23.8224C534.291 23.8906 534.469 23.946 534.631 23.9886L535.517 24.2273C535.744 24.2869 535.997 24.3693 536.276 24.4744C536.557 24.5795 536.825 24.723 537.081 24.9048C537.339 25.0838 537.553 25.3139 537.72 25.5952C537.888 25.8764 537.972 26.2216 537.972 26.6307C537.972 27.1023 537.848 27.5284 537.601 27.9091C537.357 28.2898 536.999 28.5923 536.527 28.8168C536.058 29.0412 535.489 29.1534 534.818 29.1534C534.193 29.1534 533.652 29.0526 533.195 28.8509C532.74 28.6491 532.382 28.3679 532.121 28.0071C531.862 27.6463 531.716 27.2273 531.682 26.75H532.773C532.801 27.0795 532.912 27.3523 533.105 27.5682C533.301 27.7812 533.548 27.9403 533.847 28.0455C534.148 28.1477 534.472 28.1989 534.818 28.1989C535.222 28.1989 535.584 28.1335 535.905 28.0028C536.226 27.8693 536.48 27.6847 536.668 27.4489C536.855 27.2102 536.949 26.9318 536.949 26.6136C536.949 26.3239 536.868 26.0881 536.706 25.9062C536.544 25.7244 536.331 25.5767 536.067 25.4631C535.803 25.3494 535.517 25.25 535.21 25.1648L534.136 24.858C533.455 24.6619 532.915 24.3821 532.517 24.0185C532.119 23.6548 531.92 23.179 531.92 22.5909C531.92 22.1023 532.053 21.6761 532.317 21.3125C532.584 20.946 532.942 20.6619 533.391 20.4602C533.842 20.2557 534.347 20.1534 534.903 20.1534C535.466 20.1534 535.966 20.2543 536.403 20.456C536.841 20.6548 537.188 20.9276 537.443 21.2741C537.702 21.6207 537.838 22.0142 537.852 22.4545H536.83ZM539.573 29V22.4545H540.578V29H539.573ZM540.084 21.3636C539.888 21.3636 539.719 21.2969 539.577 21.1634C539.438 21.0298 539.368 20.8693 539.368 20.6818C539.368 20.4943 539.438 20.3338 539.577 20.2003C539.719 20.0668 539.888 20 540.084 20C540.28 20 540.448 20.0668 540.587 20.2003C540.729 20.3338 540.8 20.4943 540.8 20.6818C540.8 20.8693 540.729 21.0298 540.587 21.1634C540.448 21.2969 540.28 21.3636 540.084 21.3636ZM543.426 25.0625V29H542.42V22.4545H543.392V23.4773H543.477C543.631 23.1449 543.864 22.8778 544.176 22.6761C544.489 22.4716 544.892 22.3693 545.386 22.3693C545.83 22.3693 546.217 22.4602 546.55 22.642C546.882 22.821 547.141 23.0938 547.325 23.4602C547.51 23.8239 547.602 24.2841 547.602 24.8409V29H546.597V24.9091C546.597 24.3949 546.463 23.9943 546.196 23.7074C545.929 23.4176 545.563 23.2727 545.097 23.2727C544.776 23.2727 544.489 23.3423 544.236 23.4815C543.986 23.6207 543.788 23.8239 543.643 24.0909C543.499 24.358 543.426 24.6818 543.426 25.0625ZM552.082 31.5909C551.596 31.5909 551.179 31.5284 550.829 31.4034C550.48 31.2812 550.189 31.1193 549.956 30.9176C549.725 30.7188 549.542 30.5057 549.406 30.2784L550.207 29.7159C550.298 29.8352 550.413 29.9716 550.552 30.125C550.691 30.2812 550.882 30.4162 551.123 30.5298C551.368 30.6463 551.687 30.7045 552.082 30.7045C552.61 30.7045 553.047 30.5767 553.39 30.321C553.734 30.0653 553.906 29.6648 553.906 29.1193V27.7898H553.821C553.747 27.9091 553.642 28.0568 553.505 28.233C553.372 28.4062 553.179 28.5611 552.926 28.6974C552.676 28.831 552.338 28.8977 551.912 28.8977C551.383 28.8977 550.909 28.7727 550.488 28.5227C550.071 28.2727 549.74 27.9091 549.495 27.4318C549.254 26.9545 549.133 26.375 549.133 25.6932C549.133 25.0227 549.251 24.4389 549.487 23.9418C549.723 23.4418 550.051 23.0554 550.471 22.7827C550.892 22.5071 551.377 22.3693 551.929 22.3693C552.355 22.3693 552.693 22.4403 552.943 22.5824C553.196 22.7216 553.389 22.8807 553.522 23.0597C553.659 23.2358 553.764 23.3807 553.838 23.4943H553.94V22.4545H554.912V29.1875C554.912 29.75 554.784 30.2074 554.528 30.5597C554.275 30.9148 553.934 31.1747 553.505 31.3395C553.079 31.5071 552.605 31.5909 552.082 31.5909ZM552.048 27.9943C552.451 27.9943 552.792 27.902 553.071 27.7173C553.349 27.5327 553.561 27.267 553.706 26.9205C553.85 26.5739 553.923 26.1591 553.923 25.6761C553.923 25.2045 553.852 24.7884 553.71 24.4276C553.568 24.0668 553.358 23.7841 553.079 23.5795C552.801 23.375 552.457 23.2727 552.048 23.2727C551.622 23.2727 551.267 23.3807 550.983 23.5966C550.701 23.8125 550.49 24.1023 550.348 24.4659C550.208 24.8295 550.139 25.233 550.139 25.6761C550.139 26.1307 550.21 26.5327 550.352 26.8821C550.497 27.2287 550.71 27.5014 550.991 27.7003C551.275 27.8963 551.627 27.9943 552.048 27.9943ZM557.758 20.2727V29H556.752V20.2727H557.758ZM562.344 29.1364C561.714 29.1364 561.17 28.9972 560.712 28.7188C560.258 28.4375 559.907 28.0455 559.66 27.5426C559.415 27.0369 559.293 26.4489 559.293 25.7784C559.293 25.108 559.415 24.517 559.66 24.0057C559.907 23.4915 560.251 23.0909 560.691 22.804C561.134 22.5142 561.651 22.3693 562.242 22.3693C562.583 22.3693 562.92 22.4261 563.252 22.5398C563.585 22.6534 563.887 22.8381 564.16 23.0938C564.433 23.3466 564.65 23.6818 564.812 24.0994C564.974 24.517 565.055 25.0312 565.055 25.642V26.0682H560.009V25.1989H564.032C564.032 24.8295 563.958 24.5 563.81 24.2102C563.665 23.9205 563.458 23.6918 563.188 23.5241C562.921 23.3565 562.606 23.2727 562.242 23.2727C561.842 23.2727 561.495 23.3722 561.202 23.571C560.913 23.767 560.69 24.0227 560.533 24.3381C560.377 24.6534 560.299 24.9915 560.299 25.3523V25.9318C560.299 26.4261 560.384 26.8452 560.555 27.1889C560.728 27.5298 560.968 27.7898 561.275 27.9688C561.582 28.1449 561.938 28.233 562.344 28.233C562.609 28.233 562.847 28.196 563.06 28.1222C563.276 28.0455 563.462 27.9318 563.619 27.7812C563.775 27.6278 563.896 27.4375 563.981 27.2102L564.952 27.483C564.85 27.8125 564.678 28.1023 564.437 28.3523C564.195 28.5994 563.897 28.7926 563.542 28.9318C563.187 29.0682 562.788 29.1364 562.344 29.1364ZM569.431 22.4545V23.3068H566.039V22.4545H569.431ZM567.028 20.8864H568.033V27.125C568.033 27.4091 568.075 27.6222 568.157 27.7642C568.242 27.9034 568.35 27.9972 568.481 28.0455C568.614 28.0909 568.755 28.1136 568.903 28.1136C569.013 28.1136 569.104 28.108 569.175 28.0966C569.246 28.0824 569.303 28.071 569.346 28.0625L569.55 28.9659C569.482 28.9915 569.387 29.017 569.265 29.0426C569.143 29.071 568.988 29.0852 568.8 29.0852C568.516 29.0852 568.238 29.0241 567.965 28.902C567.695 28.7798 567.471 28.5938 567.292 28.3438C567.116 28.0938 567.028 27.7784 567.028 27.3977V20.8864ZM573.533 29.1364C572.942 29.1364 572.423 28.9957 571.977 28.7145C571.534 28.4332 571.188 28.0398 570.938 27.5341C570.69 27.0284 570.567 26.4375 570.567 25.7614C570.567 25.0795 570.69 24.4844 570.938 23.9759C571.188 23.4673 571.534 23.0724 571.977 22.7912C572.423 22.5099 572.942 22.3693 573.533 22.3693C574.124 22.3693 574.641 22.5099 575.084 22.7912C575.53 23.0724 575.876 23.4673 576.124 23.9759C576.374 24.4844 576.499 25.0795 576.499 25.7614C576.499 26.4375 576.374 27.0284 576.124 27.5341C575.876 28.0398 575.53 28.4332 575.084 28.7145C574.641 28.9957 574.124 29.1364 573.533 29.1364ZM573.533 28.233C573.982 28.233 574.351 28.1179 574.641 27.8878C574.93 27.6577 575.145 27.3551 575.284 26.9801C575.423 26.6051 575.493 26.1989 575.493 25.7614C575.493 25.3239 575.423 24.9162 575.284 24.5384C575.145 24.1605 574.93 23.8551 574.641 23.6222C574.351 23.3892 573.982 23.2727 573.533 23.2727C573.084 23.2727 572.714 23.3892 572.425 23.6222C572.135 23.8551 571.92 24.1605 571.781 24.5384C571.642 24.9162 571.572 25.3239 571.572 25.7614C571.572 26.1989 571.642 26.6051 571.781 26.9801C571.92 27.3551 572.135 27.6577 572.425 27.8878C572.714 28.1179 573.084 28.233 573.533 28.233ZM579.039 25.0625V29H578.034V22.4545H579.005V23.4773H579.091C579.244 23.1449 579.477 22.8778 579.789 22.6761C580.102 22.4716 580.505 22.3693 581 22.3693C581.443 22.3693 581.831 22.4602 582.163 22.642C582.495 22.821 582.754 23.0938 582.939 23.4602C583.123 23.8239 583.216 24.2841 583.216 24.8409V29H582.21V24.9091C582.21 24.3949 582.076 23.9943 581.809 23.7074C581.542 23.4176 581.176 23.2727 580.71 23.2727C580.389 23.2727 580.102 23.3423 579.849 23.4815C579.599 23.6207 579.402 23.8239 579.257 24.0909C579.112 24.358 579.039 24.6818 579.039 25.0625ZM591.087 29.1364C590.474 29.1364 589.945 28.9915 589.502 28.7017C589.059 28.4119 588.718 28.0128 588.479 27.5043C588.241 26.9957 588.121 26.4148 588.121 25.7614C588.121 25.0966 588.244 24.5099 588.488 24.0014C588.735 23.4901 589.079 23.0909 589.519 22.804C589.962 22.5142 590.479 22.3693 591.07 22.3693C591.531 22.3693 591.945 22.4545 592.315 22.625C592.684 22.7955 592.987 23.0341 593.222 23.3409C593.458 23.6477 593.604 24.0057 593.661 24.4148H592.656C592.579 24.1165 592.408 23.8523 592.144 23.6222C591.883 23.3892 591.531 23.2727 591.087 23.2727C590.695 23.2727 590.352 23.375 590.056 23.5795C589.763 23.7812 589.535 24.0668 589.37 24.4361C589.208 24.8026 589.127 25.233 589.127 25.7273C589.127 26.233 589.207 26.6733 589.366 27.0483C589.528 27.4233 589.755 27.7145 590.048 27.9219C590.343 28.1293 590.69 28.233 591.087 28.233C591.349 28.233 591.586 28.1875 591.799 28.0966C592.012 28.0057 592.192 27.875 592.34 27.7045C592.488 27.5341 592.593 27.3295 592.656 27.0909H593.661C593.604 27.4773 593.464 27.8253 593.239 28.1349C593.018 28.4418 592.724 28.6861 592.357 28.8679C591.994 29.0469 591.57 29.1364 591.087 29.1364ZM596.137 20.2727V29H595.131V20.2727H596.137ZM599.905 29.1534C599.49 29.1534 599.114 29.0753 598.776 28.919C598.438 28.7599 598.169 28.5312 597.971 28.233C597.772 27.9318 597.672 27.5682 597.672 27.142C597.672 26.767 597.746 26.4631 597.894 26.2301C598.042 25.9943 598.239 25.8097 598.486 25.6761C598.733 25.5426 599.006 25.4432 599.304 25.3778C599.605 25.3097 599.908 25.2557 600.212 25.2159C600.61 25.1648 600.932 25.1264 601.179 25.1009C601.429 25.0724 601.611 25.0256 601.725 24.9602C601.841 24.8949 601.9 24.7812 601.9 24.6193V24.5852C601.9 24.1648 601.784 23.8381 601.554 23.6051C601.327 23.3722 600.982 23.2557 600.519 23.2557C600.039 23.2557 599.662 23.3608 599.39 23.571C599.117 23.7812 598.925 24.0057 598.814 24.2443L597.86 23.9034C598.03 23.5057 598.257 23.196 598.542 22.9744C598.828 22.75 599.141 22.5937 599.479 22.5057C599.82 22.4148 600.155 22.3693 600.485 22.3693C600.695 22.3693 600.936 22.3949 601.209 22.446C601.485 22.4943 601.75 22.5952 602.006 22.7486C602.265 22.902 602.479 23.1335 602.65 23.4432C602.82 23.7528 602.905 24.1676 602.905 24.6875V29H601.9V28.1136H601.848C601.78 28.2557 601.667 28.4077 601.507 28.5696C601.348 28.7315 601.137 28.8693 600.873 28.983C600.608 29.0966 600.286 29.1534 599.905 29.1534ZM600.059 28.25C600.456 28.25 600.792 28.1719 601.064 28.0156C601.34 27.8594 601.547 27.6577 601.686 27.4105C601.828 27.1634 601.9 26.9034 601.9 26.6307V25.7102C601.857 25.7614 601.763 25.8082 601.618 25.8509C601.476 25.8906 601.311 25.9261 601.124 25.9574C600.939 25.9858 600.759 26.0114 600.583 26.0341C600.409 26.054 600.269 26.071 600.161 26.0852C599.9 26.1193 599.655 26.1747 599.428 26.2514C599.203 26.3253 599.022 26.4375 598.882 26.5881C598.746 26.7358 598.678 26.9375 598.678 27.1932C598.678 27.5426 598.807 27.8068 599.066 27.9858C599.327 28.1619 599.658 28.25 600.059 28.25ZM609.377 23.9205L608.474 24.1761C608.417 24.0256 608.333 23.8793 608.222 23.7372C608.114 23.5923 607.967 23.473 607.779 23.3793C607.592 23.2855 607.352 23.2386 607.059 23.2386C606.658 23.2386 606.325 23.331 606.058 23.5156C605.793 23.6974 605.661 23.929 605.661 24.2102C605.661 24.4602 605.752 24.6577 605.934 24.8026C606.116 24.9474 606.4 25.0682 606.786 25.1648L607.758 25.4034C608.343 25.5455 608.779 25.7628 609.066 26.0554C609.353 26.3452 609.496 26.7187 609.496 27.1761C609.496 27.5511 609.388 27.8864 609.173 28.1818C608.96 28.4773 608.661 28.7102 608.278 28.8807C607.894 29.0511 607.448 29.1364 606.94 29.1364C606.272 29.1364 605.719 28.9915 605.282 28.7017C604.844 28.4119 604.567 27.9886 604.451 27.4318L605.406 27.1932C605.496 27.5455 605.668 27.8097 605.921 27.9858C606.177 28.1619 606.511 28.25 606.923 28.25C607.391 28.25 607.763 28.1506 608.039 27.9517C608.317 27.75 608.457 27.5085 608.457 27.2273C608.457 27 608.377 26.8097 608.218 26.6562C608.059 26.5 607.815 26.3835 607.485 26.3068L606.394 26.0511C605.795 25.9091 605.354 25.6889 605.073 25.3906C604.795 25.0895 604.656 24.7131 604.656 24.2614C604.656 23.892 604.759 23.5653 604.967 23.2812C605.177 22.9972 605.462 22.7741 605.823 22.6122C606.187 22.4503 606.599 22.3693 607.059 22.3693C607.707 22.3693 608.215 22.5114 608.585 22.7955C608.957 23.0795 609.221 23.4545 609.377 23.9205ZM615.647 23.9205L614.743 24.1761C614.686 24.0256 614.603 23.8793 614.492 23.7372C614.384 23.5923 614.236 23.473 614.049 23.3793C613.861 23.2855 613.621 23.2386 613.328 23.2386C612.928 23.2386 612.594 23.331 612.327 23.5156C612.063 23.6974 611.931 23.929 611.931 24.2102C611.931 24.4602 612.022 24.6577 612.203 24.8026C612.385 24.9474 612.669 25.0682 613.056 25.1648L614.027 25.4034C614.613 25.5455 615.049 25.7628 615.336 26.0554C615.623 26.3452 615.766 26.7187 615.766 27.1761C615.766 27.5511 615.658 27.8864 615.442 28.1818C615.229 28.4773 614.931 28.7102 614.547 28.8807C614.164 29.0511 613.718 29.1364 613.209 29.1364C612.542 29.1364 611.989 28.9915 611.551 28.7017C611.114 28.4119 610.837 27.9886 610.721 27.4318L611.675 27.1932C611.766 27.5455 611.938 27.8097 612.191 27.9858C612.446 28.1619 612.78 28.25 613.192 28.25C613.661 28.25 614.033 28.1506 614.309 27.9517C614.587 27.75 614.726 27.5085 614.726 27.2273C614.726 27 614.647 26.8097 614.488 26.6562C614.328 26.5 614.084 26.3835 613.755 26.3068L612.664 26.0511C612.064 25.9091 611.624 25.6889 611.343 25.3906C611.064 25.0895 610.925 24.7131 610.925 24.2614C610.925 23.892 611.029 23.5653 611.236 23.2812C611.446 22.9972 611.732 22.7741 612.093 22.6122C612.456 22.4503 612.868 22.3693 613.328 22.3693C613.976 22.3693 614.485 22.5114 614.854 22.7955C615.226 23.0795 615.49 23.4545 615.647 23.9205ZM623.314 29.1364C622.723 29.1364 622.205 28.9957 621.759 28.7145C621.315 28.4332 620.969 28.0398 620.719 27.5341C620.472 27.0284 620.348 26.4375 620.348 25.7614C620.348 25.0795 620.472 24.4844 620.719 23.9759C620.969 23.4673 621.315 23.0724 621.759 22.7912C622.205 22.5099 622.723 22.3693 623.314 22.3693C623.905 22.3693 624.422 22.5099 624.865 22.7912C625.311 23.0724 625.658 23.4673 625.905 23.9759C626.155 24.4844 626.28 25.0795 626.28 25.7614C626.28 26.4375 626.155 27.0284 625.905 27.5341C625.658 28.0398 625.311 28.4332 624.865 28.7145C624.422 28.9957 623.905 29.1364 623.314 29.1364ZM623.314 28.233C623.763 28.233 624.132 28.1179 624.422 27.8878C624.712 27.6577 624.926 27.3551 625.065 26.9801C625.205 26.6051 625.274 26.1989 625.274 25.7614C625.274 25.3239 625.205 24.9162 625.065 24.5384C624.926 24.1605 624.712 23.8551 624.422 23.6222C624.132 23.3892 623.763 23.2727 623.314 23.2727C622.865 23.2727 622.496 23.3892 622.206 23.6222C621.916 23.8551 621.702 24.1605 621.562 24.5384C621.423 24.9162 621.354 25.3239 621.354 25.7614C621.354 26.1989 621.423 26.6051 621.562 26.9801C621.702 27.3551 621.916 27.6577 622.206 27.8878C622.496 28.1179 622.865 28.233 623.314 28.233ZM630.73 22.4545V23.3068H627.201V22.4545H630.73ZM628.258 29V21.5511C628.258 21.1761 628.346 20.8636 628.522 20.6136C628.699 20.3636 628.927 20.1761 629.208 20.0511C629.49 19.9261 629.787 19.8636 630.099 19.8636C630.346 19.8636 630.548 19.8835 630.704 19.9233C630.86 19.9631 630.977 20 631.054 20.0341L630.764 20.9034C630.713 20.8864 630.642 20.8651 630.551 20.8395C630.463 20.8139 630.346 20.8011 630.201 20.8011C629.869 20.8011 629.629 20.8849 629.481 21.0526C629.336 21.2202 629.264 21.4659 629.264 21.7898V29H628.258Z" fill="black"/>
<path d="M536.83 50.4545C536.778 50.0227 536.571 49.6875 536.207 49.4489C535.844 49.2102 535.398 49.0909 534.869 49.0909C534.483 49.0909 534.145 49.1534 533.855 49.2784C533.568 49.4034 533.344 49.5753 533.182 49.794C533.023 50.0128 532.943 50.2614 532.943 50.5398C532.943 50.7727 532.999 50.973 533.109 51.1406C533.223 51.3054 533.368 51.4432 533.544 51.554C533.72 51.6619 533.905 51.7514 534.098 51.8224C534.291 51.8906 534.469 51.946 534.631 51.9886L535.517 52.2273C535.744 52.2869 535.997 52.3693 536.276 52.4744C536.557 52.5795 536.825 52.723 537.081 52.9048C537.339 53.0838 537.553 53.3139 537.72 53.5952C537.888 53.8764 537.972 54.2216 537.972 54.6307C537.972 55.1023 537.848 55.5284 537.601 55.9091C537.357 56.2898 536.999 56.5923 536.527 56.8168C536.058 57.0412 535.489 57.1534 534.818 57.1534C534.193 57.1534 533.652 57.0526 533.195 56.8509C532.74 56.6491 532.382 56.3679 532.121 56.0071C531.862 55.6463 531.716 55.2273 531.682 54.75H532.773C532.801 55.0795 532.912 55.3523 533.105 55.5682C533.301 55.7812 533.548 55.9403 533.847 56.0455C534.148 56.1477 534.472 56.1989 534.818 56.1989C535.222 56.1989 535.584 56.1335 535.905 56.0028C536.226 55.8693 536.48 55.6847 536.668 55.4489C536.855 55.2102 536.949 54.9318 536.949 54.6136C536.949 54.3239 536.868 54.0881 536.706 53.9062C536.544 53.7244 536.331 53.5767 536.067 53.4631C535.803 53.3494 535.517 53.25 535.21 53.1648L534.136 52.858C533.455 52.6619 532.915 52.3821 532.517 52.0185C532.119 51.6548 531.92 51.179 531.92 50.5909C531.92 50.1023 532.053 49.6761 532.317 49.3125C532.584 48.946 532.942 48.6619 533.391 48.4602C533.842 48.2557 534.347 48.1534 534.903 48.1534C535.466 48.1534 535.966 48.2543 536.403 48.456C536.841 48.6548 537.188 48.9276 537.443 49.2741C537.702 49.6207 537.838 50.0142 537.852 50.4545H536.83ZM543.698 54.3239V50.4545H544.703V57H543.698V55.892H543.63C543.476 56.2244 543.238 56.5071 542.914 56.7401C542.59 56.9702 542.181 57.0852 541.686 57.0852C541.277 57.0852 540.914 56.9957 540.596 56.8168C540.277 56.6349 540.027 56.3622 539.846 55.9986C539.664 55.6321 539.573 55.1705 539.573 54.6136V50.4545H540.578V54.5455C540.578 55.0227 540.712 55.4034 540.979 55.6875C541.249 55.9716 541.593 56.1136 542.01 56.1136C542.26 56.1136 542.515 56.0497 542.773 55.9219C543.034 55.794 543.253 55.598 543.429 55.3338C543.608 55.0696 543.698 54.733 543.698 54.3239ZM546.545 59.4545V50.4545H547.517V51.4943H547.636C547.71 51.3807 547.813 51.2358 547.943 51.0597C548.077 50.8807 548.267 50.7216 548.514 50.5824C548.764 50.4403 549.102 50.3693 549.528 50.3693C550.08 50.3693 550.565 50.5071 550.986 50.7827C551.406 51.0582 551.734 51.4489 551.97 51.9545C552.206 52.4602 552.324 53.0568 552.324 53.7443C552.324 54.4375 552.206 55.0384 551.97 55.5469C551.734 56.0526 551.408 56.4446 550.99 56.723C550.572 56.9986 550.091 57.1364 549.545 57.1364C549.125 57.1364 548.788 57.0668 548.536 56.9276C548.283 56.7855 548.088 56.625 547.952 56.446C547.815 56.2642 547.71 56.1136 547.636 55.9943H547.551V59.4545H546.545ZM547.534 53.7273C547.534 54.2216 547.607 54.6577 547.751 55.0355C547.896 55.4105 548.108 55.7045 548.386 55.9176C548.665 56.1278 549.006 56.233 549.409 56.233C549.83 56.233 550.18 56.1222 550.462 55.9006C550.746 55.6761 550.959 55.375 551.101 54.9972C551.246 54.6165 551.318 54.1932 551.318 53.7273C551.318 53.267 551.247 52.8523 551.105 52.483C550.966 52.1108 550.754 51.8168 550.47 51.6009C550.189 51.3821 549.835 51.2727 549.409 51.2727C549 51.2727 548.656 51.3764 548.378 51.5838C548.099 51.7884 547.889 52.0753 547.747 52.4446C547.605 52.8111 547.534 53.2386 547.534 53.7273ZM556.602 57.1364C555.972 57.1364 555.428 56.9972 554.97 56.7188C554.516 56.4375 554.165 56.0455 553.918 55.5426C553.673 55.0369 553.551 54.4489 553.551 53.7784C553.551 53.108 553.673 52.517 553.918 52.0057C554.165 51.4915 554.509 51.0909 554.949 50.804C555.392 50.5142 555.909 50.3693 556.5 50.3693C556.841 50.3693 557.178 50.4261 557.51 50.5398C557.842 50.6534 558.145 50.8381 558.418 51.0938C558.69 51.3466 558.908 51.6818 559.07 52.0994C559.232 52.517 559.312 53.0312 559.312 53.642V54.0682H554.267V53.1989H558.29C558.29 52.8295 558.216 52.5 558.068 52.2102C557.923 51.9205 557.716 51.6918 557.446 51.5241C557.179 51.3565 556.864 51.2727 556.5 51.2727C556.099 51.2727 555.753 51.3722 555.46 51.571C555.17 51.767 554.947 52.0227 554.791 52.3381C554.635 52.6534 554.557 52.9915 554.557 53.3523V53.9318C554.557 54.4261 554.642 54.8452 554.812 55.1889C554.986 55.5298 555.226 55.7898 555.533 55.9688C555.839 56.1449 556.196 56.233 556.602 56.233C556.866 56.233 557.105 56.196 557.318 56.1222C557.534 56.0455 557.72 55.9318 557.876 55.7812C558.033 55.6278 558.153 55.4375 558.239 55.2102L559.21 55.483C559.108 55.8125 558.936 56.1023 558.695 56.3523C558.453 56.5994 558.155 56.7926 557.8 56.9318C557.445 57.0682 557.045 57.1364 556.602 57.1364ZM560.842 57V50.4545H561.814V51.4432H561.882C562.001 51.1193 562.217 50.8565 562.53 50.6548C562.842 50.4531 563.195 50.3523 563.587 50.3523C563.661 50.3523 563.753 50.3537 563.864 50.3565C563.974 50.3594 564.058 50.3636 564.115 50.3693V51.392C564.081 51.3835 564.003 51.3707 563.881 51.3537C563.761 51.3338 563.635 51.3239 563.501 51.3239C563.183 51.3239 562.899 51.3906 562.649 51.5241C562.402 51.6548 562.206 51.8366 562.061 52.0696C561.919 52.2997 561.848 52.5625 561.848 52.858V57H560.842ZM567.767 57.1364C567.153 57.1364 566.625 56.9915 566.182 56.7017C565.739 56.4119 565.398 56.0128 565.159 55.5043C564.92 54.9957 564.801 54.4148 564.801 53.7614C564.801 53.0966 564.923 52.5099 565.168 52.0014C565.415 51.4901 565.759 51.0909 566.199 50.804C566.642 50.5142 567.159 50.3693 567.75 50.3693C568.21 50.3693 568.625 50.4545 568.994 50.625C569.364 50.7955 569.666 51.0341 569.902 51.3409C570.138 51.6477 570.284 52.0057 570.341 52.4148H569.335C569.259 52.1165 569.088 51.8523 568.824 51.6222C568.563 51.3892 568.21 51.2727 567.767 51.2727C567.375 51.2727 567.031 51.375 566.736 51.5795C566.443 51.7812 566.214 52.0668 566.05 52.4361C565.888 52.8026 565.807 53.233 565.807 53.7273C565.807 54.233 565.886 54.6733 566.045 55.0483C566.207 55.4233 566.435 55.7145 566.727 55.9219C567.023 56.1293 567.369 56.233 567.767 56.233C568.028 56.233 568.266 56.1875 568.479 56.0966C568.692 56.0057 568.872 55.875 569.02 55.7045C569.168 55.5341 569.273 55.3295 569.335 55.0909H570.341C570.284 55.4773 570.143 55.8253 569.919 56.1349C569.697 56.4418 569.403 56.6861 569.037 56.8679C568.673 57.0469 568.25 57.1364 567.767 57.1364ZM572.817 48.2727V57H571.811V48.2727H572.817ZM576.585 57.1534C576.17 57.1534 575.794 57.0753 575.456 56.919C575.118 56.7599 574.849 56.5312 574.65 56.233C574.451 55.9318 574.352 55.5682 574.352 55.142C574.352 54.767 574.426 54.4631 574.574 54.2301C574.721 53.9943 574.919 53.8097 575.166 53.6761C575.413 53.5426 575.686 53.4432 575.984 53.3778C576.285 53.3097 576.588 53.2557 576.892 53.2159C577.289 53.1648 577.612 53.1264 577.859 53.1009C578.109 53.0724 578.291 53.0256 578.404 52.9602C578.521 52.8949 578.579 52.7812 578.579 52.6193V52.5852C578.579 52.1648 578.464 51.8381 578.234 51.6051C578.007 51.3722 577.662 51.2557 577.199 51.2557C576.718 51.2557 576.342 51.3608 576.069 51.571C575.797 51.7812 575.605 52.0057 575.494 52.2443L574.539 51.9034C574.71 51.5057 574.937 51.196 575.221 50.9744C575.508 50.75 575.821 50.5937 576.159 50.5057C576.5 50.4148 576.835 50.3693 577.164 50.3693C577.375 50.3693 577.616 50.3949 577.889 50.446C578.164 50.4943 578.43 50.5952 578.686 50.7486C578.944 50.902 579.159 51.1335 579.329 51.4432C579.5 51.7528 579.585 52.1676 579.585 52.6875V57H578.579V56.1136H578.528C578.46 56.2557 578.346 56.4077 578.187 56.5696C578.028 56.7315 577.816 56.8693 577.552 56.983C577.288 57.0966 576.966 57.1534 576.585 57.1534ZM576.738 56.25C577.136 56.25 577.471 56.1719 577.744 56.0156C578.02 55.8594 578.227 55.6577 578.366 55.4105C578.508 55.1634 578.579 54.9034 578.579 54.6307V53.7102C578.537 53.7614 578.443 53.8082 578.298 53.8509C578.156 53.8906 577.991 53.9261 577.804 53.9574C577.619 53.9858 577.439 54.0114 577.262 54.0341C577.089 54.054 576.949 54.071 576.841 54.0852C576.579 54.1193 576.335 54.1747 576.108 54.2514C575.883 54.3253 575.701 54.4375 575.562 54.5881C575.426 54.7358 575.358 54.9375 575.358 55.1932C575.358 55.5426 575.487 55.8068 575.745 55.9858C576.007 56.1619 576.338 56.25 576.738 56.25ZM586.057 51.9205L585.153 52.1761C585.097 52.0256 585.013 51.8793 584.902 51.7372C584.794 51.5923 584.646 51.473 584.459 51.3793C584.271 51.2855 584.031 51.2386 583.739 51.2386C583.338 51.2386 583.004 51.331 582.737 51.5156C582.473 51.6974 582.341 51.929 582.341 52.2102C582.341 52.4602 582.432 52.6577 582.614 52.8026C582.795 52.9474 583.08 53.0682 583.466 53.1648L584.438 53.4034C585.023 53.5455 585.459 53.7628 585.746 54.0554C586.033 54.3452 586.176 54.7187 586.176 55.1761C586.176 55.5511 586.068 55.8864 585.852 56.1818C585.639 56.4773 585.341 56.7102 584.957 56.8807C584.574 57.0511 584.128 57.1364 583.619 57.1364C582.952 57.1364 582.399 56.9915 581.962 56.7017C581.524 56.4119 581.247 55.9886 581.131 55.4318L582.085 55.1932C582.176 55.5455 582.348 55.8097 582.601 55.9858C582.857 56.1619 583.19 56.25 583.602 56.25C584.071 56.25 584.443 56.1506 584.719 55.9517C584.997 55.75 585.136 55.5085 585.136 55.2273C585.136 55 585.057 54.8097 584.898 54.6562C584.739 54.5 584.494 54.3835 584.165 54.3068L583.074 54.0511C582.474 53.9091 582.034 53.6889 581.753 53.3906C581.474 53.0895 581.335 52.7131 581.335 52.2614C581.335 51.892 581.439 51.5653 581.646 51.2812C581.857 50.9972 582.142 50.7741 582.503 50.6122C582.866 50.4503 583.278 50.3693 583.739 50.3693C584.386 50.3693 584.895 50.5114 585.264 50.7955C585.636 51.0795 585.901 51.4545 586.057 51.9205ZM592.326 51.9205L591.423 52.1761C591.366 52.0256 591.282 51.8793 591.172 51.7372C591.064 51.5923 590.916 51.473 590.728 51.3793C590.541 51.2855 590.301 51.2386 590.008 51.2386C589.608 51.2386 589.274 51.331 589.007 51.5156C588.743 51.6974 588.61 51.929 588.61 52.2102C588.61 52.4602 588.701 52.6577 588.883 52.8026C589.065 52.9474 589.349 53.0682 589.735 53.1648L590.707 53.4034C591.292 53.5455 591.728 53.7628 592.015 54.0554C592.302 54.3452 592.446 54.7187 592.446 55.1761C592.446 55.5511 592.338 55.8864 592.122 56.1818C591.909 56.4773 591.61 56.7102 591.227 56.8807C590.843 57.0511 590.397 57.1364 589.889 57.1364C589.221 57.1364 588.669 56.9915 588.231 56.7017C587.794 56.4119 587.517 55.9886 587.4 55.4318L588.355 55.1932C588.446 55.5455 588.618 55.8097 588.87 55.9858C589.126 56.1619 589.46 56.25 589.872 56.25C590.341 56.25 590.713 56.1506 590.988 55.9517C591.267 55.75 591.406 55.5085 591.406 55.2273C591.406 55 591.326 54.8097 591.167 54.6562C591.008 54.5 590.764 54.3835 590.434 54.3068L589.343 54.0511C588.744 53.9091 588.304 53.6889 588.022 53.3906C587.744 53.0895 587.605 52.7131 587.605 52.2614C587.605 51.892 587.708 51.5653 587.916 51.2812C588.126 50.9972 588.412 50.7741 588.772 50.6122C589.136 50.4503 589.548 50.3693 590.008 50.3693C590.656 50.3693 591.164 50.5114 591.534 50.7955C591.906 51.0795 592.17 51.4545 592.326 51.9205ZM599.994 57.1364C599.403 57.1364 598.884 56.9957 598.438 56.7145C597.995 56.4332 597.648 56.0398 597.398 55.5341C597.151 55.0284 597.028 54.4375 597.028 53.7614C597.028 53.0795 597.151 52.4844 597.398 51.9759C597.648 51.4673 597.995 51.0724 598.438 50.7912C598.884 50.5099 599.403 50.3693 599.994 50.3693C600.585 50.3693 601.102 50.5099 601.545 50.7912C601.991 51.0724 602.337 51.4673 602.585 51.9759C602.835 52.4844 602.96 53.0795 602.96 53.7614C602.96 54.4375 602.835 55.0284 602.585 55.5341C602.337 56.0398 601.991 56.4332 601.545 56.7145C601.102 56.9957 600.585 57.1364 599.994 57.1364ZM599.994 56.233C600.442 56.233 600.812 56.1179 601.102 55.8878C601.391 55.6577 601.606 55.3551 601.745 54.9801C601.884 54.6051 601.954 54.1989 601.954 53.7614C601.954 53.3239 601.884 52.9162 601.745 52.5384C601.606 52.1605 601.391 51.8551 601.102 51.6222C600.812 51.3892 600.442 51.2727 599.994 51.2727C599.545 51.2727 599.175 51.3892 598.886 51.6222C598.596 51.8551 598.381 52.1605 598.242 52.5384C598.103 52.9162 598.033 53.3239 598.033 53.7614C598.033 54.1989 598.103 54.6051 598.242 54.9801C598.381 55.3551 598.596 55.6577 598.886 55.8878C599.175 56.1179 599.545 56.233 599.994 56.233ZM607.409 50.4545V51.3068H603.881V50.4545H607.409ZM604.938 57V49.5511C604.938 49.1761 605.026 48.8636 605.202 48.6136C605.378 48.3636 605.607 48.1761 605.888 48.0511C606.169 47.9261 606.466 47.8636 606.779 47.8636C607.026 47.8636 607.228 47.8835 607.384 47.9233C607.54 47.9631 607.657 48 607.733 48.0341L607.444 48.9034C607.392 48.8864 607.321 48.8651 607.23 48.8395C607.142 48.8139 607.026 48.8011 606.881 48.8011C606.549 48.8011 606.309 48.8849 606.161 49.0526C606.016 49.2202 605.944 49.4659 605.944 49.7898V57H604.938Z" fill="black"/>
</svg>
